<svg width="44" height="24" viewBox="0 0 44 24" fill="none" xmlns="http://www.w3.org/2000/svg">
<path d="M2.09961 10.5C1.27118 10.5 0.599609 11.1716 0.599609 12C0.599609 12.8284 1.27118 13.5 2.09961 13.5L2.09961 12L2.09961 10.5ZM43.1603 13.0607C43.7461 12.4749 43.7461 11.5251 43.1603 10.9393L33.6143 1.3934C33.0285 0.807614 32.0788 0.807614 31.493 1.3934C30.9072 1.97919 30.9072 2.92893 31.493 3.51472L39.9783 12L31.493 20.4853C30.9072 21.0711 30.9072 22.0208 31.493 22.6066C32.0788 23.1924 33.0285 23.1924 33.6143 22.6066L43.1603 13.0607ZM2.09961 12L2.09961 13.5L42.0996 13.5L42.0996 12L42.0996 10.5L2.09961 10.5L2.09961 12Z" fill="#2E3E7B"/>
</svg>
