<svg width="16" height="32" viewBox="0 0 16 32" fill="none" xmlns="http://www.w3.org/2000/svg">
<path d="M9 1C9 0.447715 8.55228 0 8 0C7.44772 0 7 0.447715 7 1H8L9 1ZM7.29289 31.7071C7.68342 32.0976 8.31658 32.0976 8.70711 31.7071L15.0711 25.3431C15.4616 24.9526 15.4616 24.3195 15.0711 23.9289C14.6805 23.5384 14.0474 23.5384 13.6569 23.9289L8 29.5858L2.34315 23.9289C1.95262 23.5384 1.31946 23.5384 0.928932 23.9289C0.538408 24.3195 0.538408 24.9526 0.928932 25.3431L7.29289 31.7071ZM8 1H7L7 31H8H9L9 1L8 1Z" fill="white"/>
</svg>
