<svg width="35" height="36" viewBox="0 0 35 36" fill="none" xmlns="http://www.w3.org/2000/svg">
<g clip-path="url(#clip0_58_4038)">
<mask id="mask0_58_4038" style="mask-type:luminance" maskUnits="userSpaceOnUse" x="0" y="0" width="35" height="36">
<path d="M0 0.58765H35V35.5876H0V0.58765Z" fill="white"/>
</mask>
<g mask="url(#mask0_58_4038)">
<path d="M33.631 18.0879C33.6275 19.5266 33.6113 20.9654 33.5916 22.404C33.5678 24.1397 33.541 25.8762 33.1057 27.5821C32.6492 29.3711 31.749 30.914 30.3483 32.0562C28.8723 33.2599 27.0882 33.8925 25.1627 34.0096C22.6088 34.1649 20.0538 34.2263 17.4988 34.2203C14.9438 34.2263 12.3888 34.1649 9.83499 34.0096C7.90944 33.8925 6.1254 33.2599 4.64938 32.0562C3.2487 30.914 2.34841 29.3711 1.89191 27.5821C1.45659 25.8762 1.4298 24.1397 1.40608 22.404C1.38639 20.9654 1.37005 19.5266 1.3667 18.0879C1.37005 16.6492 1.38639 15.2105 1.40608 13.7718C1.4298 12.0361 1.45659 10.2997 1.89191 8.59368C2.34841 6.80471 3.2487 5.26184 4.64938 4.11962C6.1254 2.91595 7.90944 2.28328 9.83499 2.16618C12.3888 2.01087 14.9438 1.94949 17.4988 1.9555C20.0538 1.94949 22.6088 2.01087 25.1627 2.16618C27.0882 2.28328 28.8723 2.91595 30.3483 4.11962C31.749 5.26184 32.6492 6.80471 33.1057 8.59368C33.541 10.2997 33.5678 12.0361 33.5916 13.7718C33.6113 15.2105 33.6275 16.6492 33.631 18.0879Z" stroke="white" stroke-width="2" stroke-miterlimit="10"/>
<path d="M24.6089 18.0879C24.6089 22.0521 21.3953 25.2656 17.4312 25.2656C13.467 25.2656 10.2534 22.0521 10.2534 18.0879C10.2534 14.1237 13.467 10.9102 17.4312 10.9102C21.3953 10.9102 24.6089 14.1237 24.6089 18.0879Z" stroke="white" stroke-width="2" stroke-miterlimit="10"/>
<path d="M28.9839 8.85938C28.9839 9.99195 28.0657 10.9102 26.9331 10.9102C25.8005 10.9102 24.8823 9.99195 24.8823 8.85938C24.8823 7.7268 25.8005 6.80859 26.9331 6.80859C28.0657 6.80859 28.9839 7.7268 28.9839 8.85938Z" fill="white"/>
</g>
</g>
<defs>
<clipPath id="clip0_58_4038">
<rect width="35" height="35" fill="white" transform="translate(0 0.587646)"/>
</clipPath>
</defs>
</svg>
