<svg width="186" height="374" viewBox="0 0 186 374" fill="none" xmlns="http://www.w3.org/2000/svg">
<path d="M-119.71 334.48C-119.71 334.48 -163.458 339.819 -193.588 306.889C-223.718 273.959 -232.521 226.392 -209.109 185.5C-186.347 145.739 -150.999 126.103 -119.908 125.884C-89.7707 125.686 -57.159 155.469 -57.159 155.469M19.1308 100.435C19.1308 100.435 8.07872 87.3465 19.3641 61.325C33.8033 28.0344 79.0723 26.507 79.0723 26.507C63.3038 40.833 81.2077 63.4463 89.2051 87.4242C97.2025 111.402 68.5081 130.692 50.7597 135.274C33.0113 139.856 14.5912 130.657 9.80407 119.011C5.64628 108.899 24.1795 101.977 25.82 116.472C28.2596 138.046 3.13604 154.67 -65.2483 115.843C-133.633 77.0157 -92.8042 1.36937 -92.8042 1.36937C-92.8042 1.36937 -89.0424 13.277 -66.4715 27.0798C-43.8936 40.8754 -43.5896 32.4113 -20.6934 53.4124C2.1956 74.4206 0.321767 126.923 0.321767 126.923M0.328824 126.916C0.328824 126.916 -94.7982 82.4604 -86.4827 53.0165C-78.1671 23.5725 -44.3745 114.118 -44.3745 114.118M47.0756 117.646C47.0756 117.646 48.1999 72.3134 50.0808 64.7898C51.9617 57.2662 63.9543 53.7448 65.8352 62.6685C67.7161 71.6063 33.2517 93.9792 33.2517 93.9792M-35.175 90.7335C-35.175 90.7335 -44.2401 76.8318 -44.5583 60.8441M34.3124 444.336C-0.434848 448.777 -52.6052 431.764 -89.7566 385.208C-126.908 338.652 -135.379 296.325 -122.206 250.243C-109.039 204.153 -47.4292 147.253 -7.92311 140.669C31.5829 134.072 90.1243 131.321 142.259 187.473C192.421 241.496 197.972 314.957 159.979 374.8C126.236 427.946 69.0737 439.896 34.3124 444.336ZM42.4017 348.368C47.9949 350.836 58.3964 342.725 54.6276 336.142C50.8658 329.552 40.6763 325.953 37.6923 331.44C34.7225 336.927 35.663 345.391 42.4017 348.368ZM-83.1168 269.815C-88.5191 271.498 -90.1384 281.758 -83.2512 283.385C-76.3569 285.018 -67.115 281.447 -68.7414 276.738C-70.3748 272.022 -76.6044 267.786 -83.1168 269.815ZM72.482 307.936C77.7994 306.012 78.952 295.696 71.9941 294.38C65.0362 293.065 55.964 297.046 57.8095 301.678C59.648 306.302 66.0756 310.255 72.482 307.936ZM-195.646 234.403C-192.824 234.736 -177.473 209.768 -170.826 213.459C-164.18 217.15 -169.426 223.5 -172.658 221.753C-175.882 220 -169.617 193.158 -172.46 191.645C-175.295 190.124 -194.38 215.22 -198.17 210.157C-201.974 205.094 -196.777 199.529 -193.687 201.983C-190.611 204.436 -198.467 234.071 -195.646 234.403ZM-89.4455 323.138C-83.5411 306.684 19.9722 269.808 18.6358 288.624C17.3065 307.433 -92.387 300.978 -101.261 287.083C-110.135 273.188 -84.7503 201.332 -64.6826 202.93C-44.6149 204.528 35.663 273.563 26.414 280.196C17.165 286.828 -54.2315 214.145 -46.92 198.051C-39.6086 181.957 -31.4415 175.572 -11.0697 168.084C9.30201 160.596 35.1892 149.869 47.3373 168.423C59.4783 186.971 48.9141 276.731 34.4184 273.351C19.9227 269.971 54.2528 186.525 78.8389 178.118C99.3308 171.103 158.813 222.354 143.136 248.397C124.801 278.852 46.5736 290.484 44.0351 282.048C41.4966 273.613 129.093 250.292 151.19 277.099C173.28 303.912 141.877 358.366 120.12 367.976C98.3621 377.586 33.7255 303.488 39.5733 294.5C45.414 285.52 101.473 378.052 98.5035 392.392C95.5337 406.732 17.2145 434.126 -2.8885 406.952C-22.9915 379.778 15.7225 290.562 26.3716 293.885C37.0206 297.209 -2.46424 399.032 -31.3778 397.71C-60.2914 396.388 -97.5843 345.787 -89.4455 323.138Z" stroke="white" stroke-miterlimit="10"/>
</svg>
