<svg width="30" height="30" viewBox="0 0 30 30" fill="none" xmlns="http://www.w3.org/2000/svg">
<g clip-path="url(#clip0_77_256)">
<mask id="mask0_77_256" style="mask-type:luminance" maskUnits="userSpaceOnUse" x="0" y="0" width="30" height="30">
<path d="M0 3.8147e-06H30V30H0V3.8147e-06Z" fill="white"/>
</mask>
<g mask="url(#mask0_77_256)">
<path d="M2.67439 21.8807C1.531 19.8466 0.878906 17.4995 0.878906 15C0.878906 7.23346 7.23351 0.87891 15 0.87891C22.7665 0.87891 29.1211 7.23346 29.1211 15C29.1211 22.7665 22.7665 29.1211 15 29.1211C12.5005 29.1211 10.1534 28.4689 8.11933 27.3256L0.878906 29.1211L2.67439 21.8807Z" stroke="#2E3E7B" stroke-width="2" stroke-miterlimit="10" stroke-linecap="round" stroke-linejoin="round"/>
<path d="M13.3436 16.6564C12.7608 16.0716 10.4214 13.4756 11.2726 12.6243C11.5066 12.3904 12.4421 11.7514 12.8071 11.3864C14.0501 10.1434 12.624 8.60452 11.7095 7.69005C11.6348 7.61534 10.2271 6.10028 8.3582 7.96925C5.01689 11.3106 9.77956 17.3018 11.2317 18.7682C12.6982 20.2204 18.6894 24.9831 22.0308 21.6418C23.8997 19.7728 22.3846 18.3651 22.3099 18.2905C21.3955 17.376 19.8565 15.9499 18.6136 17.1929C18.2486 17.5579 17.6096 18.4933 17.3756 18.7273C16.5243 19.5786 13.9283 17.2392 13.3436 16.6564Z" stroke="#2E3E7B" stroke-width="2" stroke-miterlimit="10"/>
</g>
</g>
<defs>
<clipPath id="clip0_77_256">
<rect width="30" height="30" fill="white"/>
</clipPath>
</defs>
</svg>
