<svg width="35" height="36" viewBox="0 0 35 36" fill="none" xmlns="http://www.w3.org/2000/svg">
<g clip-path="url(#clip0_77_393)">
<path d="M22.8871 16.5154L15.1548 12.2846C14.7102 12.0414 14.1847 12.0505 13.7489 12.3087C13.3128 12.5672 13.0527 13.0238 13.0527 13.5306V21.9196C13.0527 22.424 13.3112 22.8798 13.7443 23.1386C13.9705 23.2737 14.2213 23.3415 14.4725 23.3415C14.7027 23.3415 14.9334 23.2846 15.1457 23.1703L22.8783 19.0124C23.3373 18.7654 23.6239 18.2883 23.626 17.7667C23.6279 17.2452 23.3448 16.7659 22.8871 16.5154ZM15.1038 20.8643V14.5944L20.8828 17.7566L15.1038 20.8643Z" fill="white"/>
<path d="M34.7426 11.0827L34.741 11.0667C34.7113 10.7849 34.4163 8.27914 33.1981 7.00462C31.79 5.50552 30.1937 5.3234 29.426 5.23608C29.3625 5.22887 29.3043 5.2222 29.2522 5.21526L29.1911 5.20885C24.564 4.87239 17.5761 4.82646 17.5061 4.82619L17.5 4.82593L17.4939 4.82619C17.4239 4.82646 10.436 4.87239 5.76729 5.20885L5.7056 5.21526C5.65594 5.22193 5.6012 5.22807 5.54165 5.23502C4.78275 5.3226 3.20354 5.50498 1.7915 7.05829C0.631256 8.3192 0.295868 10.7713 0.261421 11.0469L0.257416 11.0827C0.247002 11.1999 0 13.9906 0 16.7923V19.4113C0 22.213 0.247002 25.0037 0.257416 25.1212L0.259285 25.1388C0.288925 25.416 0.583725 27.8759 1.7963 29.1509C3.12023 30.5998 4.79424 30.7915 5.69466 30.8946C5.83698 30.9109 5.95955 30.9248 6.04313 30.9395L6.12404 30.9507C8.79566 31.2049 17.1721 31.3301 17.5272 31.3352L17.5379 31.3355L17.5486 31.3352C17.6186 31.3349 24.6062 31.289 29.2332 30.9526L29.2944 30.9462C29.3529 30.9384 29.4186 30.9315 29.4907 30.924C30.2453 30.8439 31.8159 30.6775 33.2085 29.1453C34.3687 27.8841 34.7044 25.432 34.7386 25.1567L34.7426 25.1209C34.753 25.0034 35.0003 22.213 35.0003 19.4113V16.7923C35 13.9906 34.753 11.2002 34.7426 11.0827ZM32.949 19.4113C32.949 22.0044 32.7225 24.675 32.7011 24.9201C32.6141 25.5954 32.2603 27.1469 31.695 27.7613C30.8234 28.7202 29.9281 28.8153 29.2744 28.8844C29.1953 28.8927 29.1222 28.9007 29.0559 28.909C24.5805 29.2326 17.8565 29.2823 17.5467 29.2842C17.1993 29.2791 8.94547 29.1528 6.35529 28.9122C6.22257 28.8906 6.07918 28.874 5.92804 28.8569C5.1614 28.7691 4.11198 28.6489 3.30502 27.7613L3.28606 27.741C2.73064 27.1624 2.38697 25.7116 2.29965 24.9281C2.28336 24.7428 2.05105 22.0407 2.05105 19.4113V16.7923C2.05105 14.2021 2.27695 11.5345 2.29885 11.2843C2.40273 10.4888 2.76321 9.03136 3.30502 8.4423C4.2033 7.45429 5.15045 7.34481 5.7769 7.27245C5.83672 7.2655 5.89252 7.25909 5.94406 7.25242C10.4846 6.92718 17.257 6.87885 17.5 6.87698C17.743 6.87858 24.513 6.92718 29.0132 7.25242C29.0685 7.25936 29.1288 7.2663 29.1937 7.27378C29.8381 7.34721 30.8119 7.4583 31.7057 8.41159L31.7139 8.4204C32.2694 8.99905 32.613 10.4752 32.7003 11.2744C32.7158 11.4493 32.949 14.1572 32.949 16.7923V19.4113Z" fill="white"/>
</g>
<defs>
<clipPath id="clip0_77_393">
<rect width="35.0001" height="35" fill="white" transform="translate(0 0.587646)"/>
</clipPath>
</defs>
</svg>
