<svg width="44" height="24" viewBox="0 0 44 24" fill="none" xmlns="http://www.w3.org/2000/svg">
<path d="M41.9014 10.5C42.7298 10.5 43.4014 11.1716 43.4014 12C43.4014 12.8284 42.7298 13.5 41.9014 13.5L41.9014 12L41.9014 10.5ZM0.840706 13.0607C0.254921 12.4749 0.254921 11.5251 0.840706 10.9393L10.3866 1.3934C10.9724 0.807614 11.9222 0.807614 12.508 1.3934C13.0938 1.97919 13.0938 2.92893 12.508 3.51472L4.02269 12L12.508 20.4853C13.0938 21.0711 13.0938 22.0208 12.508 22.6066C11.9222 23.1924 10.9724 23.1924 10.3866 22.6066L0.840706 13.0607ZM41.9014 12L41.9014 13.5L1.90137 13.5L1.90137 12L1.90137 10.5L41.9014 10.5L41.9014 12Z" fill="#505050"/>
</svg>
