<svg width="30" height="30" viewBox="0 0 30 30" fill="none" xmlns="http://www.w3.org/2000/svg">
<path d="M5 14C4.44772 14 4 14.4477 4 15C4 15.5523 4.44772 16 5 16L5 15L5 14ZM25.7071 15.7071C26.0976 15.3166 26.0976 14.6834 25.7071 14.2929L19.3431 7.92893C18.9526 7.53841 18.3195 7.53841 17.9289 7.92893C17.5384 8.31946 17.5384 8.95262 17.9289 9.34315L23.5858 15L17.9289 20.6569C17.5384 21.0474 17.5384 21.6805 17.9289 22.0711C18.3195 22.4616 18.9526 22.4616 19.3431 22.0711L25.7071 15.7071ZM5 15L5 16L25 16L25 15L25 14L5 14L5 15Z" fill="#2E3E7B"/>
</svg>
