<svg width="35" height="36" viewBox="0 0 35 36" fill="none" xmlns="http://www.w3.org/2000/svg">
<g clip-path="url(#clip0_58_4036)">
<path d="M19.9021 35.5193H14.2752C13.3353 35.5193 12.5708 34.7577 12.5708 33.8215V21.1793H9.28792C8.34805 21.1793 7.5835 20.4175 7.5835 19.4815V14.0643C7.5835 13.1281 8.34805 12.3666 9.28792 12.3666H12.5708V9.65381C12.5708 6.96403 13.4187 4.67559 15.0226 3.0363C16.6337 1.38953 18.8853 0.519287 21.5338 0.519287L25.8252 0.52623C26.7635 0.527832 27.5267 1.2894 27.5267 2.224V7.25375C27.5267 8.18996 26.7624 8.95152 25.8228 8.95152L22.9335 8.95259C22.0523 8.95259 21.8279 9.12856 21.7799 9.1825C21.7009 9.27196 21.6068 9.52483 21.6068 10.2231V12.3663H25.6056C25.9067 12.3663 26.1984 12.4403 26.449 12.5796C26.9897 12.8806 27.3259 13.4496 27.3259 14.0646L27.3237 19.4818C27.3237 20.4175 26.5592 21.179 25.6193 21.179H21.6068V33.8215C21.6068 34.7577 20.8419 35.5193 19.9021 35.5193ZM14.6306 33.4674H19.5466V20.2607C19.5466 19.6356 20.0573 19.1272 20.6846 19.1272H25.2638L25.2657 14.4184H20.6843C20.057 14.4184 19.5466 13.91 19.5466 13.2849V10.2231C19.5466 9.42149 19.6284 8.50986 20.2358 7.82466C20.9698 6.99634 22.1266 6.90074 22.9329 6.90074L25.4668 6.89967V2.57755L21.5322 2.57114C17.2757 2.57114 14.6306 5.28522 14.6306 9.65381V13.2849C14.6306 13.9097 14.1202 14.4184 13.4929 14.4184H9.64338V19.1272H13.4929C14.1202 19.1272 14.6306 19.6356 14.6306 20.2607V33.4674Z" fill="white"/>
</g>
<defs>
<clipPath id="clip0_58_4036">
<rect width="35" height="35" fill="white" transform="translate(0 0.587646)"/>
</clipPath>
</defs>
</svg>
