<svg width="30" height="30" viewBox="0 0 30 30" fill="none" xmlns="http://www.w3.org/2000/svg">
<g clip-path="url(#clip0_77_241)">
<path d="M17.0588 29.9414H12.2357C11.4301 29.9414 10.7748 29.2886 10.7748 28.4862V17.65H7.96093C7.15533 17.65 6.5 16.997 6.5 16.1948V11.5514C6.5 10.749 7.15533 10.0962 7.96093 10.0962H10.7748V7.771C10.7748 5.46547 11.5016 3.50395 12.8764 2.09885C14.2573 0.687332 16.1872 -0.0585938 18.4574 -0.0585938L22.1357 -0.0526429C22.94 -0.0512695 23.5941 0.601502 23.5941 1.40259V5.71381C23.5941 6.51627 22.939 7.16904 22.1337 7.16904L19.6571 7.16995C18.9018 7.16995 18.7095 7.32079 18.6684 7.36702C18.6006 7.4437 18.5199 7.66045 18.5199 8.25897V10.096H21.9475C22.2056 10.096 22.4556 10.1594 22.6704 10.2789C23.1339 10.5368 23.422 11.0246 23.422 11.5517L23.4202 16.195C23.4202 16.997 22.7649 17.6498 21.9593 17.6498H18.5199V28.4862C18.5199 29.2886 17.8644 29.9414 17.0588 29.9414ZM12.5404 28.1827H16.7541V16.8626C16.7541 16.3268 17.1918 15.891 17.7295 15.891H21.6546L21.6562 11.8549H17.7293C17.1916 11.8549 16.7541 11.4191 16.7541 10.8833V8.25897C16.7541 7.57187 16.8242 6.79047 17.3449 6.20316C17.974 5.49316 18.9655 5.41122 19.6567 5.41122L21.8285 5.41031V1.70563L18.4561 1.70013C14.8076 1.70013 12.5404 4.02649 12.5404 7.771V10.8833C12.5404 11.4189 12.1029 11.8549 11.5652 11.8549H8.26562V15.891H11.5652C12.1029 15.891 12.5404 16.3268 12.5404 16.8626V28.1827Z" fill="#2E3E7B"/>
</g>
<defs>
<clipPath id="clip0_77_241">
<rect width="30" height="30" fill="white"/>
</clipPath>
</defs>
</svg>
