<svg width="100" height="100" viewBox="0 0 100 100" fill="none" xmlns="http://www.w3.org/2000/svg">
<g clip-path="url(#clip0_1_3839)">
<mask id="mask0_1_3839" style="mask-type:luminance" maskUnits="userSpaceOnUse" x="0" y="0" width="100" height="100">
<path d="M98.5254 98.5254V1.47461H1.47461V98.5254H98.5254Z" fill="white" stroke="white" stroke-width="2.95"/>
</mask>
<g mask="url(#mask0_1_3839)">
<path d="M54.1789 16.9951L51.0783 9.69434C50.674 8.74277 49.3252 8.74277 48.9211 9.69434L45.8203 16.9951" stroke="#037DCD" stroke-width="2.95" stroke-miterlimit="10" stroke-linecap="round" stroke-linejoin="round"/>
<path d="M57.2803 23.4771L60.5714 15.5462C60.9229 14.6991 60.0186 13.8784 59.2094 14.3103L53.0358 17.6062C51.1389 18.6187 48.862 18.6187 46.9653 17.6062L40.7915 14.3103C39.9825 13.8784 39.078 14.6991 39.4296 15.5462L42.7206 23.4771" stroke="#037DCD" stroke-width="2.95" stroke-miterlimit="10" stroke-linecap="round" stroke-linejoin="round"/>
<path d="M30.2773 32.8843C31.0215 27.5679 35.5873 23.4767 41.1088 23.4767H58.8908C64.4123 23.4767 68.9781 27.5679 69.7223 32.8843" stroke="#037DCD" stroke-width="2.95" stroke-miterlimit="10" stroke-linecap="round" stroke-linejoin="round"/>
<path d="M61.6029 58.2603C61.1514 56.8089 60.9082 55.2657 60.9082 53.6659C60.9082 45.1331 67.8256 38.2159 76.3584 38.2159C84.8912 38.2159 91.8084 45.1331 91.8084 53.6659C91.8084 55.2589 91.5672 56.7954 91.1195 58.2413" stroke="#037DCD" stroke-width="2.95" stroke-miterlimit="10" stroke-linecap="round" stroke-linejoin="round"/>
<path d="M76.3594 38.2158V25.3365" stroke="#037DCD" stroke-width="2.95" stroke-miterlimit="10" stroke-linecap="round" stroke-linejoin="round"/>
<path d="M78.8771 32.2766L76.3594 30.1666L78.8771 28.0568C81.0543 26.2322 84.2268 26.2322 86.4041 28.0568L88.0285 29.4182C88.4943 29.8084 88.4943 30.5248 88.0285 30.9152L86.4041 32.2766C84.2268 34.1012 81.0543 34.1012 78.8771 32.2766Z" stroke="#037DCD" stroke-width="2.95" stroke-miterlimit="10" stroke-linecap="round" stroke-linejoin="round"/>
<path d="M36.083 58.241L40.2397 49.0919C40.8373 47.7763 41.0301 46.3126 40.793 44.8873C40.0936 40.6806 35.9438 37.9736 31.8119 39.0287L26.3424 40.4253C25.1608 40.7271 23.9223 40.7271 22.7406 40.4253L17.2711 39.0287C13.1391 37.9736 8.98947 40.6806 8.29006 44.8873C8.05295 46.3126 8.24553 47.7763 8.84319 49.0919L12.9998 58.241" stroke="#037DCD" stroke-width="2.95" stroke-miterlimit="10" stroke-linecap="round" stroke-linejoin="round"/>
<path d="M24.541 40.4326V25.3365" stroke="#037DCD" stroke-width="2.95" stroke-miterlimit="10" stroke-linecap="round" stroke-linejoin="round"/>
<path d="M22.0242 32.2766L24.542 30.1666L22.0242 28.0568C19.847 26.2322 16.6746 26.2322 14.4972 28.0568L12.8726 29.4182C12.407 29.8084 12.407 30.5248 12.8728 30.9152L14.4972 32.2766C16.6746 34.1012 19.847 34.1012 22.0242 32.2766Z" stroke="#037DCD" stroke-width="2.95" stroke-miterlimit="10" stroke-linecap="round" stroke-linejoin="round"/>
<path d="M94.6055 68.421V76.0923" stroke="#037DCD" stroke-width="2.95" stroke-miterlimit="10" stroke-linecap="round" stroke-linejoin="round"/>
<path d="M94.6055 84.511V96.5825C94.6055 97.6612 93.7311 98.5356 92.6523 98.5356H7.34766C6.26895 98.5356 5.39453 97.6612 5.39453 96.5825V68.4214" stroke="#037DCD" stroke-width="2.95" stroke-miterlimit="10" stroke-linecap="round" stroke-linejoin="round"/>
<path d="M24.5418 68.4209H3.41797C2.33926 68.4209 1.46484 67.5463 1.46484 66.4678V60.1941C1.46484 59.1154 2.33926 58.241 3.41797 58.241H96.582C97.6607 58.241 98.5351 59.1154 98.5351 60.1941V66.4678C98.5351 67.5463 97.6607 68.4209 96.582 68.4209H32.5234" stroke="#037DCD" stroke-width="2.95" stroke-miterlimit="10" stroke-linecap="round" stroke-linejoin="round"/>
<path d="M40.0625 33.645H41.375" stroke="#037DCD" stroke-width="2.95" stroke-miterlimit="10" stroke-linecap="round" stroke-linejoin="round"/>
<path d="M49.3438 33.6448H50.6562" stroke="#037DCD" stroke-width="2.95" stroke-miterlimit="10" stroke-linecap="round" stroke-linejoin="round"/>
<path d="M58.625 33.6448H59.9375" stroke="#037DCD" stroke-width="2.95" stroke-miterlimit="10" stroke-linecap="round" stroke-linejoin="round"/>
<path d="M49.3438 50.187H50.6562" stroke="#037DCD" stroke-width="2.95" stroke-miterlimit="10" stroke-linecap="round" stroke-linejoin="round"/>
<path d="M44.7031 42.1331H46.0156" stroke="#037DCD" stroke-width="2.95" stroke-miterlimit="10" stroke-linecap="round" stroke-linejoin="round"/>
<path d="M53.9844 42.1333H55.2969" stroke="#037DCD" stroke-width="2.95" stroke-miterlimit="10" stroke-linecap="round" stroke-linejoin="round"/>
<path d="M55.825 84.5107H44.1752C41.8467 84.5107 39.959 82.623 39.959 80.2945C39.959 77.966 41.8467 76.0783 44.1752 76.0783H55.825C58.1535 76.0783 60.0412 77.966 60.0412 80.2945C60.0412 82.623 58.1535 84.5107 55.825 84.5107Z" stroke="#037DCD" stroke-width="2.95" stroke-miterlimit="10" stroke-linecap="round" stroke-linejoin="round"/>
<path d="M95.2212 18.6593L95.27 18.6431C95.6218 18.5271 95.6218 18.0294 95.27 17.9134L95.221 17.8972C93.1399 17.2105 91.5073 15.5777 90.8206 13.4966C90.8151 13.4802 90.8099 13.4638 90.8046 13.4478C90.6884 13.096 90.1909 13.0964 90.0749 13.448L90.0587 13.497C89.372 15.5781 87.7396 17.2105 85.6587 17.8972L85.6097 17.9134C85.2577 18.0294 85.2577 18.5271 85.6097 18.6431L85.6585 18.6593C87.7396 19.346 89.3722 20.9791 90.0589 23.0601C90.0644 23.0765 90.0696 23.0927 90.0749 23.1089C90.1911 23.4607 90.6886 23.4603 90.8046 23.1085L90.8208 23.0597C91.5075 20.9787 93.1401 19.346 95.2212 18.6593Z" stroke="#037DCD" stroke-width="2.95" stroke-miterlimit="10" stroke-linecap="round" stroke-linejoin="round"/>
<path d="M22.3988 11.5289L22.4476 11.5129C22.7994 11.3967 22.7994 10.8992 22.4476 10.7832L22.3986 10.767C20.3175 10.0802 18.6849 8.44724 17.9982 6.36619C17.9929 6.34978 17.9875 6.33357 17.9822 6.31736C17.866 5.9656 17.3687 5.96599 17.2525 6.31775L17.2363 6.36677C16.5496 8.44783 14.9171 10.0802 12.8363 10.767L12.7873 10.7832C12.4355 10.8992 12.4355 11.3967 12.7873 11.5129L12.8363 11.5289C14.9171 12.2158 16.5498 13.8486 17.2365 15.9297C17.2419 15.9461 17.2474 15.9625 17.2527 15.9785C17.3687 16.3302 17.8662 16.3301 17.9822 15.9781L17.9984 15.9295C18.6851 13.8482 20.3177 12.2158 22.3988 11.5289Z" stroke="#037DCD" stroke-width="2.95" stroke-miterlimit="10" stroke-linecap="round" stroke-linejoin="round"/>
<path d="M79.7859 9.40657L79.8566 9.38313C80.3668 9.21477 80.3668 8.49309 79.8566 8.32473L79.7855 8.30129C76.7674 7.3054 74.3996 4.93704 73.4035 1.91868C73.3957 1.89504 73.3879 1.87122 73.3801 1.84778C73.2117 1.33762 72.4902 1.33821 72.3219 1.84836L72.2984 1.91946C71.3023 4.93782 68.9348 7.3052 65.9166 8.30129L65.8455 8.32473C65.3354 8.49309 65.3354 9.21477 65.8455 9.38313L65.9166 9.40657C68.9348 10.4027 71.3027 12.771 72.2988 15.7892C72.3066 15.813 72.3145 15.8366 72.3221 15.8601C72.4904 16.3702 73.2119 16.3697 73.3803 15.8597L73.4037 15.7888C74.3998 12.7704 76.7674 10.4027 79.7859 9.40657Z" stroke="#037DCD" stroke-width="2.95" stroke-miterlimit="10" stroke-linecap="round" stroke-linejoin="round"/>
</g>
</g>
<defs>
<clipPath id="clip0_1_3839">
<rect width="100" height="100" fill="white"/>
</clipPath>
</defs>
</svg>
