<svg width="100" height="100" viewBox="0 0 100 100" fill="none" xmlns="http://www.w3.org/2000/svg">
<mask id="mask0_1_4447" style="mask-type:luminance" maskUnits="userSpaceOnUse" x="0" y="-1" width="100" height="101">
<path d="M0 -0.000236511H100V99.9998H0V-0.000236511Z" fill="white"/>
</mask>
<g mask="url(#mask0_1_4447)">
<path d="M57.5527 48.0759C62.9768 47.9468 67.3182 44.6761 67.7164 41.523C68.0809 38.6337 66.617 35.8847 64.3006 35.8847H61.3781" stroke="#037DCD" stroke-width="2.95" stroke-miterlimit="10" stroke-linecap="round" stroke-linejoin="round"/>
<path d="M52.8084 11.1032C47.5414 15.9225 54.693 20.3434 50.4414 23.9846" stroke="#037DCD" stroke-width="2.95" stroke-miterlimit="10" stroke-linecap="round" stroke-linejoin="round"/>
<path d="M24.1504 64.8674H63.4533" stroke="#037DCD" stroke-width="2.95" stroke-miterlimit="10" stroke-linecap="round" stroke-linejoin="round"/>
<path d="M18.0039 75.5046H67.7006" stroke="#037DCD" stroke-width="2.95" stroke-miterlimit="10" stroke-linecap="round" stroke-linejoin="round"/>
<path d="M45.9354 11.1032C40.6684 15.9225 47.8199 20.3434 43.5684 23.9846" stroke="#037DCD" stroke-width="2.95" stroke-miterlimit="10" stroke-linecap="round" stroke-linejoin="round"/>
<path d="M47.048 32.8266H59.6908C61.0148 32.8266 61.5755 33.7524 61.4914 35.0819C61.2166 42.0555 57.223 51.2342 51.7427 54.3479M35.2855 54.3479C30.0466 51.2342 26.7597 42.0612 27.0291 35.0875L27.0515 34.5715C27.0851 33.612 27.8591 32.8266 28.7623 32.8266H40.1935" stroke="#037DCD" stroke-width="2.95" stroke-miterlimit="10" stroke-linecap="round" stroke-linejoin="round"/>
<path d="M7.856 38.5884L5.37671 86.6915C5.25893 88.947 7.00893 90.7927 9.26382 90.7927H76.1974C78.4523 90.7927 80.3931 88.947 80.5107 86.6915L84.6896 5.56596C84.8074 3.31049 83.0574 1.46479 80.8025 1.46479H13.8689C11.614 1.46479 9.67339 3.31049 9.55542 5.56596L8.25971 30.6666" stroke="#037DCD" stroke-width="2.95" stroke-miterlimit="10" stroke-linecap="round" stroke-linejoin="round"/>
<path d="M80.5273 86.3269H88.3016C92.2447 86.3269 95.066 83.1009 94.5725 79.1625L85.7943 8.62906C85.6539 7.51265 85.267 6.45796 84.6949 5.51538C84.6949 5.53218 84.6893 5.54897 84.6893 5.56577" stroke="#037DCD" stroke-width="2.95" stroke-miterlimit="10" stroke-linecap="round" stroke-linejoin="round"/>
<path d="M27.9082 54.3481H59.7006" stroke="#037DCD" stroke-width="2.95" stroke-miterlimit="10" stroke-linecap="round" stroke-linejoin="round"/>
<path d="M11.957 90.7925H24.4148V97.0369C24.4148 97.8617 23.7418 98.5349 22.9172 98.5349H13.449C12.6301 98.5349 11.957 97.8617 11.957 97.0369V90.7925Z" stroke="#037DCD" stroke-width="2.95" stroke-miterlimit="10" stroke-linecap="round" stroke-linejoin="round"/>
<path d="M61.8145 90.7925H74.2723V97.0369C74.2723 97.8617 73.5992 98.5349 72.7803 98.5349H63.3121C62.4875 98.5349 61.8145 97.8617 61.8145 97.0369V90.7925Z" stroke="#037DCD" stroke-width="2.95" stroke-miterlimit="10" stroke-linecap="round" stroke-linejoin="round"/>
</g>
</svg>
