<svg width="30" height="30" viewBox="0 0 30 30" fill="none" xmlns="http://www.w3.org/2000/svg">
<g clip-path="url(#clip0_77_243)">
<mask id="mask0_77_243" style="mask-type:luminance" maskUnits="userSpaceOnUse" x="0" y="0" width="30" height="30">
<path d="M0 3.8147e-06H30V30H0V3.8147e-06Z" fill="white"/>
</mask>
<g mask="url(#mask0_77_243)">
<path d="M28.8265 15C28.8235 16.2332 28.8096 17.4664 28.7927 18.6995C28.7723 20.1873 28.7494 21.6757 28.3762 23.1379C27.985 24.6713 27.2133 25.9938 26.0127 26.9728C24.7476 28.0045 23.2184 28.5468 21.5679 28.6472C19.3789 28.7803 17.1889 28.8329 14.9989 28.8278C12.8089 28.8329 10.6189 28.7803 8.42992 28.6472C6.77945 28.5468 5.25027 28.0045 3.98512 26.9728C2.78453 25.9938 2.01285 24.6713 1.62156 23.1379C1.24844 21.6757 1.22547 20.1873 1.20514 18.6995C1.18826 17.4664 1.17426 16.2332 1.17139 15C1.17426 13.7668 1.18826 12.5336 1.20514 11.3005C1.22547 9.81277 1.24844 8.32437 1.62156 6.8621C2.01285 5.3287 2.78453 4.00624 3.98512 3.0272C5.25027 1.99548 6.77945 1.45319 8.42992 1.35282C10.6189 1.2197 12.8089 1.16708 14.9989 1.17224C17.1889 1.16708 19.3789 1.2197 21.5679 1.35282C23.2184 1.45319 24.7476 1.99548 26.0127 3.0272C27.2133 4.00624 27.985 5.3287 28.3762 6.8621C28.7494 8.32437 28.7723 9.81277 28.7927 11.3005C28.8096 12.5336 28.8235 13.7668 28.8265 15Z" stroke="#2E3E7B" stroke-width="2" stroke-miterlimit="10"/>
<path d="M21.0933 15C21.0933 18.3979 18.3388 21.1523 14.9409 21.1523C11.5431 21.1523 8.78857 18.3979 8.78857 15C8.78857 11.6021 11.5431 8.84766 14.9409 8.84766C18.3388 8.84766 21.0933 11.6021 21.0933 15Z" stroke="#2E3E7B" stroke-width="2" stroke-miterlimit="10"/>
<path d="M24.8433 7.08984C24.8433 8.06063 24.0562 8.84766 23.0854 8.84766C22.1147 8.84766 21.3276 8.06063 21.3276 7.08984C21.3276 6.11906 22.1147 5.33203 23.0854 5.33203C24.0562 5.33203 24.8433 6.11906 24.8433 7.08984Z" fill="#2E3E7B"/>
</g>
</g>
<defs>
<clipPath id="clip0_77_243">
<rect width="30" height="30" fill="white"/>
</clipPath>
</defs>
</svg>
