<svg width="30" height="30" viewBox="0 0 30 30" fill="none" xmlns="http://www.w3.org/2000/svg">
<mask id="mask0_1_357" style="mask-type:luminance" maskUnits="userSpaceOnUse" x="0" y="0" width="30" height="30">
<path d="M0 3.8147e-06H30V30H0V3.8147e-06Z" fill="white"/>
</mask>
<g mask="url(#mask0_1_357)">
<path d="M15.001 29.0039C15.001 29.0039 26.6646 22.1651 26.6646 12.5425C26.6646 6.1009 21.4426 0.878906 15.001 0.878906C8.5594 0.878906 3.3374 6.1009 3.3374 12.5425C3.3374 22.1651 15.001 29.0039 15.001 29.0039Z" stroke="#0E1A47" stroke-width="1.79688" stroke-miterlimit="10"/>
<path d="M19.2424 12.3609C19.2424 14.7035 17.3433 16.6025 15.0007 16.6025C12.6581 16.6025 10.759 14.7035 10.759 12.3609C10.759 10.0183 12.6581 8.11922 15.0007 8.11922C17.3433 8.11922 19.2424 10.0183 19.2424 12.3609Z" stroke="#0E1A47" stroke-width="1.79688" stroke-miterlimit="10"/>
</g>
</svg>
