<svg width="320" height="70" viewBox="0 0 320 70" fill="none" xmlns="http://www.w3.org/2000/svg">
<g clip-path="url(#clip0_1_4964)">
<path d="M94.9075 60.1844C95.8333 60.1844 96.5425 60.3506 97.0351 60.6829C97.5277 61.0093 97.774 61.5197 97.774 62.2141C97.774 62.6473 97.6731 63.0004 97.4713 63.2734C97.2755 63.5405 96.9906 63.7512 96.6167 63.9055C96.7413 64.0598 96.8719 64.2378 97.0084 64.4396C97.1449 64.6355 97.2784 64.8432 97.409 65.0628C97.5455 65.2764 97.6761 65.5019 97.8007 65.7393C97.9253 65.9708 98.041 66.1993 98.1479 66.4248H96.59C96.4772 66.223 96.3615 66.0183 96.2428 65.8106C96.13 65.6028 96.0114 65.4011 95.8867 65.2052C95.768 65.0094 95.6493 64.8254 95.5306 64.6533C95.4119 64.4752 95.2932 64.315 95.1746 64.1726H94.4891V66.4248H93.1004V60.3446C93.403 60.2853 93.7146 60.2438 94.0351 60.22C94.3615 60.1963 94.6523 60.1844 94.9075 60.1844ZM94.9876 61.3684C94.8867 61.3684 94.7947 61.3714 94.7116 61.3773C94.6345 61.3832 94.5603 61.3892 94.4891 61.3951V63.0687H94.8808C95.403 63.0687 95.7769 63.0034 96.0025 62.8729C96.228 62.7423 96.3407 62.5197 96.3407 62.2052C96.3407 61.9025 96.225 61.6889 95.9935 61.5642C95.768 61.4337 95.4327 61.3684 94.9876 61.3684ZM99.038 66.4248V60.2556H103.204V61.4218H100.427V62.6325H102.893V63.772H100.427V65.2586H103.409V66.4248H99.038ZM106.119 65.3655C106.315 65.3655 106.475 65.3506 106.6 65.3209C106.73 65.2853 106.834 65.2408 106.911 65.1874C106.989 65.1281 107.042 65.0598 107.072 64.9827C107.101 64.9055 107.116 64.8195 107.116 64.7245C107.116 64.5227 107.021 64.3565 106.831 64.226C106.641 64.0895 106.315 63.9441 105.852 63.7898C105.65 63.7186 105.449 63.6384 105.247 63.5494C105.045 63.4545 104.864 63.3387 104.704 63.2022C104.543 63.0598 104.413 62.8907 104.312 62.6948C104.211 62.493 104.161 62.2497 104.161 61.9648C104.161 61.68 104.214 61.4248 104.321 61.1993C104.428 60.9678 104.579 60.7719 104.775 60.6117C104.971 60.4515 105.208 60.3298 105.487 60.2467C105.766 60.1577 106.081 60.1132 106.431 60.1132C106.846 60.1132 107.205 60.1577 107.508 60.2467C107.811 60.3357 108.06 60.4337 108.256 60.5405L107.855 61.6355C107.683 61.5464 107.49 61.4693 107.276 61.404C107.069 61.3328 106.817 61.2972 106.52 61.2972C106.187 61.2972 105.947 61.3447 105.799 61.4396C105.656 61.5286 105.585 61.6681 105.585 61.858C105.585 61.9708 105.612 62.0657 105.665 62.1429C105.719 62.22 105.793 62.2912 105.888 62.3565C105.989 62.4159 106.101 62.4723 106.226 62.5257C106.357 62.5731 106.499 62.6236 106.653 62.677C106.974 62.7957 107.253 62.9144 107.49 63.0331C107.727 63.1459 107.923 63.2794 108.078 63.4337C108.238 63.588 108.357 63.769 108.434 63.9767C108.511 64.1844 108.549 64.4367 108.549 64.7334C108.549 65.3091 108.348 65.7571 107.944 66.0776C107.541 66.3922 106.932 66.5494 106.119 66.5494C105.846 66.5494 105.6 66.5316 105.38 66.496C105.161 66.4663 104.965 66.4278 104.793 66.3803C104.627 66.3328 104.481 66.2824 104.357 66.229C104.238 66.1755 104.137 66.1251 104.054 66.0776L104.446 64.9738C104.63 65.0746 104.855 65.1666 105.122 65.2497C105.395 65.3269 105.727 65.3655 106.119 65.3655ZM114.167 60.2862V61.4643H112.316V66.4248H110.934V61.4643H109.083V60.2862H114.167ZM118.439 66.4248C118.374 66.2122 118.3 65.9937 118.218 65.7693C118.141 65.5449 118.064 65.3205 117.987 65.0961H115.596C115.519 65.3205 115.439 65.5449 115.356 65.7693C115.28 65.9937 115.209 66.2122 115.144 66.4248H113.709C113.939 65.7634 114.158 65.1522 114.364 64.5912C114.571 64.0302 114.772 63.5017 114.967 63.0056C115.167 62.5096 115.362 62.0401 115.551 61.5972C115.746 61.1484 115.947 60.7114 116.154 60.2862H117.473C117.674 60.7114 117.872 61.1484 118.067 61.5972C118.262 62.0401 118.457 62.5096 118.652 63.0056C118.852 63.5017 119.056 64.0302 119.263 64.5912C119.469 65.1522 119.688 65.7634 119.918 66.4248H118.439ZM116.783 61.6769C116.753 61.7655 116.709 61.8866 116.65 62.0401C116.591 62.1937 116.523 62.3708 116.446 62.5716C116.369 62.7724 116.284 62.9938 116.189 63.2359C116.1 63.4781 116.009 63.732 115.914 63.9977H117.659C117.565 63.732 117.473 63.4781 117.385 63.2359C117.296 62.9938 117.211 62.7724 117.128 62.5716C117.051 62.3708 116.983 62.1937 116.924 62.0401C116.865 61.8866 116.818 61.7655 116.783 61.6769ZM122.94 66.5488C122.509 66.5488 122.137 66.4898 121.824 66.3717C121.511 66.2476 121.251 66.0793 121.045 65.8668C120.844 65.6483 120.693 65.3914 120.593 65.0961C120.499 64.7949 120.451 64.4642 120.451 64.104V60.2862H121.833V63.9889C121.833 64.2369 121.86 64.4495 121.913 64.6266C121.972 64.7979 122.049 64.9396 122.143 65.0518C122.244 65.1581 122.362 65.2349 122.497 65.2821C122.639 65.3294 122.793 65.353 122.958 65.353C123.295 65.353 123.566 65.2496 123.773 65.043C123.986 64.8363 124.092 64.4849 124.092 63.9889V60.2862H125.474V64.104C125.474 64.4642 125.424 64.7949 125.323 65.0961C125.223 65.3973 125.069 65.6571 124.863 65.8756C124.656 66.0882 124.393 66.2536 124.074 66.3717C123.755 66.4898 123.377 66.5488 122.94 66.5488ZM128.601 60.2154C129.522 60.2154 130.228 60.3807 130.718 60.7114C131.208 61.0362 131.453 61.5441 131.453 62.235C131.453 62.6661 131.353 63.0174 131.152 63.2891C130.957 63.5548 130.674 63.7645 130.302 63.918C130.426 64.0715 130.556 64.2487 130.691 64.4495C130.827 64.6444 130.96 64.851 131.09 65.0695C131.226 65.2821 131.356 65.5065 131.48 65.7427C131.604 65.973 131.719 66.2004 131.825 66.4248H130.275C130.163 66.224 130.048 66.0203 129.93 65.8136C129.817 65.6069 129.699 65.4061 129.575 65.2113C129.457 65.0164 129.339 64.8333 129.221 64.6621C129.103 64.4849 128.985 64.3255 128.867 64.1837H128.185V66.4248H126.803V60.3748C127.104 60.3158 127.414 60.2744 127.733 60.2508C128.058 60.2272 128.347 60.2154 128.601 60.2154ZM128.681 61.3935C128.58 61.3935 128.489 61.3964 128.406 61.4023C128.329 61.4082 128.255 61.4142 128.185 61.4201V63.0854H128.574C129.094 63.0854 129.466 63.0204 129.69 62.8905C129.915 62.7606 130.027 62.5391 130.027 62.2261C130.027 61.925 129.912 61.7124 129.682 61.5884C129.457 61.4584 129.123 61.3935 128.681 61.3935ZM137.098 66.4248C137.033 66.2122 136.959 65.9937 136.876 65.7693C136.8 65.5449 136.723 65.3205 136.646 65.0961H134.254C134.178 65.3205 134.098 65.5449 134.015 65.7693C133.938 65.9937 133.868 66.2122 133.803 66.4248H132.368C132.598 65.7634 132.816 65.1522 133.023 64.5912C133.23 64.0302 133.431 63.5017 133.625 63.0056C133.826 62.5096 134.021 62.0401 134.21 61.5972C134.405 61.1484 134.606 60.7114 134.812 60.2862H136.132C136.333 60.7114 136.531 61.1484 136.726 61.5972C136.921 62.0401 137.116 62.5096 137.31 63.0056C137.511 63.5017 137.715 64.0302 137.922 64.5912C138.128 65.1522 138.347 65.7634 138.577 66.4248H137.098ZM135.441 61.6769C135.412 61.7655 135.368 61.8866 135.308 62.0401C135.249 62.1937 135.182 62.3708 135.105 62.5716C135.028 62.7724 134.942 62.9938 134.848 63.2359C134.759 63.4781 134.668 63.732 134.573 63.9977H136.318C136.224 63.732 136.132 63.4781 136.044 63.2359C135.955 62.9938 135.869 62.7724 135.787 62.5716C135.71 62.3708 135.642 62.1937 135.583 62.0401C135.524 61.8866 135.477 61.7655 135.441 61.6769ZM143.491 66.4248C143.095 65.7221 142.667 65.0282 142.206 64.3432C141.746 63.6582 141.255 63.0115 140.736 62.4033V66.4248H139.372V60.2862H140.497C140.691 60.4811 140.907 60.7203 141.143 61.0037C141.379 61.2872 141.619 61.5913 141.861 61.9161C142.109 62.235 142.354 62.5686 142.596 62.9171C142.838 63.2596 143.065 63.5903 143.278 63.9091V60.2862H144.651V66.4248H143.491ZM150.62 60.2862V61.4643H148.769V66.4248H147.387V61.4643H145.536V60.2862H150.62ZM155.815 63.2979C155.815 63.4692 155.786 63.6316 155.727 63.7851C155.667 63.9328 155.582 64.0656 155.47 64.1837C155.357 64.2959 155.222 64.3875 155.062 64.4583C154.909 64.5233 154.734 64.5558 154.54 64.5558C154.345 64.5558 154.168 64.5233 154.008 64.4583C153.855 64.3875 153.722 64.2959 153.609 64.1837C153.497 64.0656 153.412 63.9328 153.353 63.7851C153.294 63.6316 153.264 63.4692 153.264 63.2979C153.264 63.1326 153.294 62.9732 153.353 62.8196C153.412 62.6661 153.497 62.5332 153.609 62.421C153.722 62.3029 153.855 62.2114 154.008 62.1464C154.168 62.0755 154.345 62.0401 154.54 62.0401C154.734 62.0401 154.909 62.0755 155.062 62.1464C155.222 62.2114 155.357 62.3029 155.47 62.421C155.582 62.5332 155.667 62.6661 155.727 62.8196C155.786 62.9732 155.815 63.1326 155.815 63.2979ZM161.79 66.5488C160.792 66.5488 160.03 66.2713 159.504 65.7162C158.985 65.1611 158.725 64.3727 158.725 63.3511C158.725 62.8432 158.805 62.3915 158.964 61.9958C159.124 61.5943 159.342 61.2577 159.62 60.986C159.897 60.7085 160.228 60.4988 160.612 60.3571C160.995 60.2154 161.412 60.1445 161.861 60.1445C162.12 60.1445 162.357 60.1652 162.569 60.2065C162.782 60.242 162.968 60.2862 163.127 60.3394C163.287 60.3866 163.42 60.4368 163.526 60.49C163.632 60.5431 163.709 60.5845 163.756 60.614L163.358 61.7301C163.169 61.6297 162.947 61.5441 162.693 61.4732C162.445 61.4023 162.162 61.3669 161.843 61.3669C161.63 61.3669 161.421 61.4023 161.214 61.4732C161.013 61.5441 160.833 61.6592 160.674 61.8187C160.52 61.9722 160.396 62.173 160.302 62.421C160.207 62.669 160.16 62.9702 160.16 63.3245C160.16 63.608 160.189 63.8737 160.248 64.1217C160.313 64.3639 160.414 64.5735 160.55 64.7507C160.691 64.9278 160.874 65.0695 161.099 65.1758C161.323 65.2762 161.595 65.3264 161.914 65.3264C162.115 65.3264 162.295 65.3146 162.454 65.291C162.614 65.2674 162.755 65.2408 162.879 65.2113C163.003 65.1758 163.113 65.1374 163.207 65.0961C163.302 65.0548 163.387 65.0164 163.464 64.981L163.845 66.0882C163.65 66.2063 163.375 66.3126 163.021 66.4071C162.667 66.5016 162.256 66.5488 161.79 66.5488ZM165.67 63.3511C165.67 63.6523 165.705 63.9239 165.776 64.166C165.853 64.4081 165.959 64.6178 166.095 64.7949C166.237 64.9662 166.408 65.0991 166.609 65.1935C166.81 65.288 167.04 65.3353 167.3 65.3353C167.554 65.3353 167.781 65.288 167.982 65.1935C168.189 65.0991 168.36 64.9662 168.496 64.7949C168.637 64.6178 168.744 64.4081 168.815 64.166C168.891 63.9239 168.93 63.6523 168.93 63.3511C168.93 63.0499 168.891 62.7783 168.815 62.5362C168.744 62.2881 168.637 62.0785 168.496 61.9072C168.36 61.7301 168.189 61.5943 167.982 61.4998C167.781 61.4053 167.554 61.3581 167.3 61.3581C167.04 61.3581 166.81 61.4082 166.609 61.5086C166.408 61.6031 166.237 61.7389 166.095 61.9161C165.959 62.0874 165.853 62.297 165.776 62.545C165.705 62.7871 165.67 63.0558 165.67 63.3511ZM170.356 63.3511C170.356 63.8767 170.276 64.3402 170.117 64.7418C169.963 65.1374 169.751 65.4711 169.479 65.7427C169.207 66.0085 168.882 66.2093 168.505 66.3451C168.132 66.4809 167.731 66.5488 167.3 66.5488C166.881 66.5488 166.485 66.4809 166.113 66.3451C165.741 66.2093 165.416 66.0085 165.138 65.7427C164.861 65.4711 164.642 65.1374 164.483 64.7418C164.324 64.3402 164.244 63.8767 164.244 63.3511C164.244 62.8255 164.326 62.3649 164.492 61.9693C164.657 61.5677 164.879 61.2311 165.156 60.9594C165.44 60.6878 165.764 60.4841 166.131 60.3482C166.503 60.2124 166.892 60.1445 167.3 60.1445C167.719 60.1445 168.115 60.2124 168.487 60.3482C168.859 60.4841 169.184 60.6878 169.461 60.9594C169.739 61.2311 169.957 61.5677 170.117 61.9693C170.276 62.3649 170.356 62.8255 170.356 63.3511ZM174.307 66.5488C173.309 66.5488 172.547 66.2713 172.021 65.7162C171.502 65.1611 171.242 64.3727 171.242 63.3511C171.242 62.8432 171.322 62.3915 171.481 61.9958C171.641 61.5943 171.859 61.2577 172.137 60.986C172.414 60.7085 172.745 60.4988 173.129 60.3571C173.513 60.2154 173.929 60.1445 174.378 60.1445C174.638 60.1445 174.874 60.1652 175.086 60.2065C175.299 60.242 175.485 60.2862 175.644 60.3394C175.804 60.3866 175.937 60.4368 176.043 60.49C176.149 60.5431 176.226 60.5845 176.273 60.614L175.875 61.7301C175.686 61.6297 175.464 61.5441 175.21 61.4732C174.962 61.4023 174.679 61.3669 174.36 61.3669C174.147 61.3669 173.938 61.4023 173.731 61.4732C173.53 61.5441 173.35 61.6592 173.191 61.8187C173.037 61.9722 172.913 62.173 172.819 62.421C172.724 62.669 172.677 62.9702 172.677 63.3245C172.677 63.608 172.706 63.8737 172.766 64.1217C172.83 64.3639 172.931 64.5735 173.067 64.7507C173.208 64.9278 173.391 65.0695 173.616 65.1758C173.84 65.2762 174.112 65.3264 174.431 65.3264C174.632 65.3264 174.812 65.3146 174.971 65.291C175.131 65.2674 175.272 65.2408 175.396 65.2113C175.52 65.1758 175.63 65.1374 175.724 65.0961C175.819 65.0548 175.904 65.0164 175.981 64.981L176.362 66.0882C176.167 66.2063 175.892 66.3126 175.538 66.4071C175.184 66.5016 174.773 66.5488 174.307 66.5488ZM180.874 66.4248C180.75 66.224 180.603 66.0085 180.432 65.7782C180.266 65.542 180.083 65.3087 179.882 65.0784C179.687 64.8422 179.484 64.6178 179.271 64.4052C179.059 64.1867 178.846 63.9948 178.633 63.8294V66.4248H177.252V60.2862H178.633V62.607C178.994 62.2291 179.354 61.8364 179.714 61.4289C180.08 61.0155 180.42 60.6347 180.733 60.2862H182.371C181.952 60.7823 181.53 61.2606 181.105 61.7212C180.685 62.1818 180.243 62.6454 179.776 63.1119C180.266 63.5194 180.739 64.0036 181.193 64.5646C181.654 65.1256 182.094 65.7457 182.513 66.4248H180.874ZM188.067 60.2862V61.4643H186.216V66.4248H184.834V61.4643H182.983V60.2862H188.067ZM192.339 66.4248C192.274 66.2122 192.2 65.9937 192.117 65.7693C192.041 65.5449 191.964 65.3205 191.887 65.0961H189.496C189.419 65.3205 189.339 65.5449 189.256 65.7693C189.18 65.9937 189.109 66.2122 189.044 66.4248H187.609C187.839 65.7634 188.058 65.1522 188.264 64.5912C188.471 64.0302 188.672 63.5017 188.867 63.0056C189.067 62.5096 189.262 62.0401 189.451 61.5972C189.646 61.1484 189.847 60.7114 190.054 60.2862H191.373C191.574 60.7114 191.772 61.1484 191.967 61.5972C192.162 62.0401 192.357 62.5096 192.551 63.0056C192.752 63.5017 192.956 64.0302 193.163 64.5912C193.369 65.1522 193.588 65.7634 193.818 66.4248H192.339ZM190.682 61.6769C190.653 61.7655 190.609 61.8866 190.55 62.0401C190.491 62.1937 190.423 62.3708 190.346 62.5716C190.269 62.7724 190.183 62.9938 190.089 63.2359C190 63.4781 189.909 63.732 189.814 63.9977H191.559C191.465 63.732 191.373 63.4781 191.285 63.2359C191.196 62.9938 191.111 62.7724 191.028 62.5716C190.951 62.3708 190.883 62.1937 190.824 62.0401C190.765 61.8866 190.718 61.7655 190.682 61.6769ZM194.613 60.2862H195.995V66.4248H194.613V60.2862ZM201.517 65.2378V66.4248H197.415V60.2862H198.797V65.2378H201.517ZM206.714 63.2979C206.714 63.4692 206.684 63.6316 206.625 63.7851C206.566 63.9328 206.481 64.0656 206.368 64.1837C206.256 64.2959 206.12 64.3875 205.961 64.4583C205.807 64.5233 205.633 64.5558 205.438 64.5558C205.243 64.5558 205.066 64.5233 204.907 64.4583C204.753 64.3875 204.62 64.2959 204.508 64.1837C204.396 64.0656 204.31 63.9328 204.251 63.7851C204.192 63.6316 204.163 63.4692 204.163 63.2979C204.163 63.1326 204.192 62.9732 204.251 62.8196C204.31 62.6661 204.396 62.5332 204.508 62.421C204.62 62.3029 204.753 62.2114 204.907 62.1464C205.066 62.0755 205.243 62.0401 205.438 62.0401C205.633 62.0401 205.807 62.0755 205.961 62.1464C206.12 62.2114 206.256 62.3029 206.368 62.421C206.481 62.5332 206.566 62.6661 206.625 62.8196C206.684 62.9732 206.714 63.1326 206.714 63.2979ZM211.935 66.5045C211.599 66.5045 211.262 66.4927 210.926 66.4691C210.595 66.4514 210.25 66.4041 209.889 66.3274V60.3748C210.173 60.3217 210.483 60.2833 210.819 60.2597C211.156 60.2301 211.469 60.2154 211.758 60.2154C212.148 60.2154 212.505 60.2449 212.83 60.304C213.161 60.3571 213.444 60.4516 213.68 60.5874C213.917 60.7232 214.1 60.9033 214.23 61.1277C214.366 61.3462 214.433 61.6179 214.433 61.9427C214.433 62.4328 214.197 62.8196 213.725 63.1031C214.115 63.2507 214.38 63.4515 214.522 63.7054C214.664 63.9593 214.735 64.2457 214.735 64.5646C214.735 65.2083 214.498 65.6925 214.026 66.0173C213.559 66.3421 212.863 66.5045 211.935 66.5045ZM211.236 63.7497V65.3353C211.336 65.3471 211.445 65.3559 211.563 65.3618C211.682 65.3678 211.811 65.3707 211.953 65.3707C212.367 65.3707 212.7 65.3117 212.954 65.1935C213.208 65.0754 213.335 64.8569 213.335 64.5381C213.335 64.2546 213.229 64.0538 213.016 63.9357C212.804 63.8117 212.499 63.7497 212.104 63.7497H211.236ZM211.236 62.6956H211.909C212.334 62.6956 212.638 62.6425 212.821 62.5362C213.004 62.424 213.096 62.2468 213.096 62.0047C213.096 61.7567 213.001 61.5825 212.812 61.4821C212.623 61.3817 212.346 61.3315 211.98 61.3315C211.862 61.3315 211.735 61.3344 211.599 61.3403C211.463 61.3403 211.342 61.3462 211.236 61.3581V62.6956ZM219.864 66.4248C219.799 66.2122 219.726 65.9937 219.643 65.7693C219.566 65.5449 219.489 65.3205 219.413 65.0961H217.021C216.944 65.3205 216.864 65.5449 216.782 65.7693C216.705 65.9937 216.634 66.2122 216.569 66.4248H215.134C215.364 65.7634 215.583 65.1522 215.79 64.5912C215.996 64.0302 216.197 63.5017 216.392 63.0056C216.593 62.5096 216.788 62.0401 216.977 61.5972C217.171 61.1484 217.372 60.7114 217.579 60.2862H218.899C219.1 60.7114 219.297 61.1484 219.492 61.5972C219.687 62.0401 219.882 62.5096 220.077 63.0056C220.278 63.5017 220.481 64.0302 220.688 64.5912C220.895 65.1522 221.113 65.7634 221.344 66.4248H219.864ZM218.208 61.6769C218.178 61.7655 218.134 61.8866 218.075 62.0401C218.016 62.1937 217.948 62.3708 217.871 62.5716C217.795 62.7724 217.709 62.9938 217.614 63.2359C217.526 63.4781 217.434 63.732 217.34 63.9977H219.085C218.99 63.732 218.899 63.4781 218.81 63.2359C218.722 62.9938 218.636 62.7724 218.553 62.5716C218.477 62.3708 218.409 62.1937 218.35 62.0401C218.291 61.8866 218.243 61.7655 218.208 61.6769ZM223.936 60.2154C224.858 60.2154 225.563 60.3807 226.053 60.7114C226.544 61.0362 226.789 61.5441 226.789 62.235C226.789 62.6661 226.688 63.0174 226.487 63.2891C226.293 63.5548 226.009 63.7645 225.637 63.918C225.761 64.0715 225.891 64.2487 226.027 64.4495C226.163 64.6444 226.296 64.851 226.425 65.0695C226.561 65.2821 226.691 65.5065 226.815 65.7427C226.939 65.973 227.054 66.2004 227.161 66.4248H225.61C225.498 66.224 225.383 66.0203 225.265 65.8136C225.153 65.6069 225.035 65.4061 224.911 65.2113C224.793 65.0164 224.674 64.8333 224.556 64.6621C224.438 64.4849 224.32 64.3255 224.202 64.1837H223.52V66.4248H222.138V60.3748C222.439 60.3158 222.749 60.2744 223.068 60.2508C223.393 60.2272 223.682 60.2154 223.936 60.2154ZM224.016 61.3935C223.916 61.3935 223.824 61.3964 223.741 61.4023C223.665 61.4082 223.591 61.4142 223.52 61.4201V63.0854H223.91C224.429 63.0854 224.801 63.0204 225.026 62.8905C225.25 62.7606 225.362 62.5391 225.362 62.2261C225.362 61.925 225.247 61.7124 225.017 61.5884C224.793 61.4584 224.459 61.3935 224.016 61.3935Z" fill="white"/>
<path d="M271.356 27.4445C268.921 27.0237 266.426 26.9056 263.945 26.7137C261.613 26.5292 259.265 26.4849 256.933 26.2634C255.353 26.1158 254.275 25.2374 254.091 23.5617C253.899 21.8492 254.711 20.5943 256.232 19.989C257.398 19.524 258.697 19.273 259.959 19.1623C264.92 18.7268 269.585 19.7676 273.933 22.4397C274.693 20.9265 275.387 19.5535 276.383 17.5752C272.626 16.4606 269.186 15.0064 265.621 14.4897C260.882 13.8032 256.04 13.8844 251.862 16.9183C249.219 18.8301 248.008 22.4102 249.042 25.7393C249.987 28.7879 252.031 30.7514 255.346 31.0024C258.18 31.2165 261.022 31.2903 263.857 31.4675C265.842 31.593 267.85 31.6594 269.806 31.9842C271.29 32.2278 272.375 33.1209 272.515 34.8409C272.663 36.642 272.154 38.1183 270.522 38.9893C269.784 39.388 268.935 39.7054 268.109 39.7866C263.185 40.259 258.261 40.4361 253.604 38.3176C252.068 37.6237 250.607 36.7749 249.005 35.9481C248.252 37.3359 247.543 38.6424 246.739 40.1335C251.81 44.0162 257.597 44.998 263.569 45.1161C267.134 45.1899 270.714 44.8504 273.859 42.8426C277.513 40.5173 278.14 36.9077 277.55 33.0693C277.033 29.6959 274.531 27.9907 271.349 27.4371L271.356 27.4445Z" fill="white"/>
<path d="M191.576 15.7013C185.176 14.9853 178.672 15.155 172.066 14.9336V43.9951C173.107 43.9951 173.956 43.9951 174.804 43.9951C180.009 43.9582 185.25 44.2387 190.409 43.7441C192.867 43.5079 195.473 42.2013 197.496 40.6881C201.629 37.5952 202.493 32.9964 202.212 28.0508C201.851 21.7247 197.754 16.3878 191.568 15.7013H191.576ZM191.672 38.3924C190.409 38.8132 189.044 39.0641 187.715 39.1011C184.43 39.197 181.145 39.1306 177.86 39.1232C177.654 39.1232 177.44 39.0789 176.982 39.0199V19.739C181.655 19.9605 186.216 19.931 190.712 20.4698C194.646 20.9422 197.156 24.2861 197.422 28.4715C197.739 33.3729 195.665 37.049 191.672 38.385V38.3924Z" fill="white"/>
<path d="M160.085 39.2403H139.299V31.711H155.546V26.8465H139.291V20.1219H159.517V15.501H134.493V44.0384H160.085V39.2403Z" fill="white"/>
<path d="M239.881 31.7704C239.903 30.486 239.851 29.1721 239.748 27.8582C239.475 24.4995 236.64 9.79533 235.769 5.72806C235.548 4.70201 235.341 4.34769 234.573 4.32555C234.47 4.32555 234.352 4.32555 234.219 4.32555C233.938 4.34031 233.186 4.34769 233.186 4.34769L233.163 27.4227V35.4613H229.908V4.36245H227.155V35.6679H223.966V4.36245H221.205V35.4613H217.95V27.4227L217.928 4.34769C217.928 4.34769 217.175 4.34769 216.894 4.32555C216.761 4.32555 216.651 4.31816 216.54 4.32555C215.78 4.34769 215.566 4.70201 215.344 5.72806C214.473 9.79533 211.631 24.4995 211.365 27.8582C211.262 29.1721 211.21 30.4787 211.233 31.7704C211.188 34.9815 211.639 38.067 213.137 40.6801C214.193 42.5181 215.794 43.8246 217.529 44.6735C217.544 44.6735 217.551 44.6883 217.566 44.6957C217.581 44.6957 217.596 44.7104 217.61 44.7178C217.743 44.7843 217.876 44.8655 218.009 44.9245C218.098 44.9614 218.186 44.9836 218.275 45.0205C220.585 46.0318 223.08 46.3049 225.56 46.2532C228.041 46.3049 230.543 46.0318 232.846 45.0205C232.935 44.9836 233.023 44.9614 233.112 44.9245C233.252 44.8655 233.377 44.7843 233.51 44.7178C233.525 44.7104 233.54 44.7031 233.555 44.6957C233.569 44.6957 233.577 44.6809 233.592 44.6735C235.326 43.8246 236.928 42.5181 237.984 40.6801C239.482 38.067 239.932 34.9741 239.888 31.7704H239.881Z" fill="white"/>
<path d="M100.642 30.2794L79.7441 0V44.0314V44.0388H84.0845V44.0314H84.3429V13.5674L100.59 37.6685L100.642 37.602L100.686 37.6685L116.933 13.5674V44.0314H117.191V44.0388H121.532V44.0314V0L100.642 30.2794Z" fill="white"/>
<path d="M38.8052 10.8731L23.791 39.2481H4.79806V2.57617H0V44.0388H24.2782V44.0166H26.7289L30.2721 37.2772H47.5451L51.0883 44.0166C51.0883 44.0166 56.6466 44.0462 56.6835 44.0388C56.6319 43.7509 38.8052 10.8805 38.8052 10.8805V10.8731ZM32.804 32.457L38.8643 20.9269V20.9195C38.8643 20.9195 41.6324 26.1088 43.7509 30.0801L45.0058 32.4644H32.7966L32.804 32.457Z" fill="white"/>
<path d="M319.86 44.0382C319.809 43.7503 301.982 10.8799 301.982 10.8799L284.443 44.016H289.906L293.449 37.2766H310.722L314.265 44.016C314.265 44.016 319.824 44.0455 319.86 44.0382ZM295.988 32.4564L302.049 20.9263V20.9189C302.049 20.9189 304.817 26.1082 306.935 30.0795L308.19 32.4638H295.981L295.988 32.4564Z" fill="white"/>
</g>
<defs>
<clipPath id="clip0_1_4964">
<rect width="319.861" height="70" fill="white"/>
</clipPath>
</defs>
</svg>
