<svg width="252" height="56" viewBox="0 0 252 56" fill="none" xmlns="http://www.w3.org/2000/svg">
<g clip-path="url(#clip0_78_459)">
<path d="M74.7747 48.5382C75.5041 48.5382 76.0628 48.6691 76.4509 48.9309C76.8389 49.188 77.033 49.5901 77.033 50.1372C77.033 50.4785 76.9535 50.7566 76.7945 50.9717C76.6402 51.1821 76.4158 51.3481 76.1213 51.4696C76.2194 51.5912 76.3223 51.7315 76.4298 51.8904C76.5374 52.0447 76.6426 52.2084 76.7454 52.3813C76.853 52.5497 76.9558 52.7273 77.054 52.9143C77.1522 53.0967 77.2434 53.2767 77.3275 53.4543H76.1002C76.0114 53.2954 75.9202 53.1341 75.8267 52.9704C75.7379 52.8068 75.6444 52.6478 75.5462 52.4936C75.4527 52.3393 75.3592 52.1943 75.2657 52.0587C75.1722 51.9185 75.0786 51.7922 74.9851 51.68H74.4451V53.4543H73.3511V48.6644C73.5895 48.6177 73.835 48.5849 74.0875 48.5662C74.3446 48.5475 74.5737 48.5382 74.7747 48.5382ZM74.8379 49.4709C74.7584 49.4709 74.6859 49.4732 74.6205 49.4779C74.5597 49.4826 74.5012 49.4873 74.4451 49.492V50.8104H74.7537C75.1651 50.8104 75.4597 50.759 75.6374 50.6561C75.815 50.5533 75.9039 50.3779 75.9039 50.1301C75.9039 49.8917 75.8127 49.7234 75.6303 49.6252C75.4527 49.5223 75.1885 49.4709 74.8379 49.4709ZM78.0288 53.4543V48.5943H81.3109V49.513H79.1228V50.4668H81.0654V51.3644H79.1228V52.5356H81.4722V53.4543H78.0288ZM83.6073 52.6198C83.7616 52.6198 83.8878 52.6081 83.986 52.5847C84.0889 52.5567 84.1707 52.5216 84.2315 52.4795C84.2922 52.4328 84.3343 52.379 84.3577 52.3182C84.3811 52.2574 84.3928 52.1897 84.3928 52.1148C84.3928 51.9559 84.3179 51.825 84.1683 51.7221C84.0187 51.6146 83.7616 51.5 83.3969 51.3785C83.2379 51.3224 83.079 51.2592 82.92 51.1891C82.761 51.1143 82.6184 51.0231 82.4922 50.9156C82.366 50.8034 82.2631 50.6701 82.1836 50.5159C82.1042 50.3569 82.0644 50.1652 82.0644 49.9408C82.0644 49.7164 82.1065 49.5153 82.1906 49.3377C82.2748 49.1553 82.394 49.001 82.5483 48.8748C82.7026 48.7486 82.8896 48.6527 83.1094 48.5873C83.3291 48.5171 83.5769 48.4821 83.8527 48.4821C84.18 48.4821 84.4629 48.5171 84.7013 48.5873C84.9398 48.6574 85.1361 48.7345 85.2904 48.8187L84.9748 49.6813C84.8393 49.6112 84.6873 49.5504 84.519 49.499C84.3554 49.4429 84.1566 49.4148 83.9229 49.4148C83.6611 49.4148 83.4717 49.4522 83.3548 49.527C83.2426 49.5971 83.1865 49.707 83.1865 49.8566C83.1865 49.9455 83.2075 50.0203 83.2496 50.081C83.2917 50.1418 83.3501 50.1979 83.4249 50.2494C83.5044 50.2961 83.5933 50.3405 83.6914 50.3826C83.7943 50.42 83.9065 50.4598 84.0281 50.5018C84.2805 50.5953 84.5003 50.6889 84.6873 50.7824C84.8743 50.8712 85.0286 50.9764 85.1502 51.0979C85.2764 51.2195 85.3699 51.3621 85.4307 51.5257C85.4915 51.6894 85.5219 51.8881 85.5219 52.1219C85.5219 52.5754 85.3629 52.9284 85.045 53.1808C84.727 53.4286 84.2478 53.5525 83.6073 53.5525C83.3922 53.5525 83.1982 53.5385 83.0252 53.5105C82.8522 53.4871 82.6979 53.4567 82.5623 53.4193C82.4314 53.3819 82.3169 53.3421 82.2187 53.3001C82.1252 53.258 82.0457 53.2182 81.9803 53.1808L82.2888 52.3112C82.4338 52.3907 82.6114 52.4632 82.8218 52.5286C83.0369 52.5894 83.2987 52.6198 83.6073 52.6198ZM89.9477 48.6184V49.5465H88.4892V53.4543H87.4006V49.5465H85.9422V48.6184H89.9477ZM93.3128 53.4543C93.2616 53.2869 93.2035 53.1147 93.1384 52.938C93.0779 52.7612 93.0174 52.5844 92.9569 52.4076H91.0728C91.0123 52.5844 90.9495 52.7612 90.8844 52.938C90.8239 53.1147 90.7681 53.2869 90.7169 53.4543H89.5864C89.7679 52.9333 89.94 52.4518 90.1028 52.0098C90.2656 51.5679 90.4238 51.1515 90.5773 50.7607C90.7355 50.3699 90.889 50.0001 91.0379 49.6512C91.1914 49.2976 91.3496 48.9534 91.5124 48.6184H92.5522C92.7104 48.9534 92.8662 49.2976 93.0197 49.6512C93.1733 50.0001 93.3268 50.3699 93.4803 50.7607C93.6385 51.1515 93.799 51.5679 93.9618 52.0098C94.1246 52.4518 94.2968 52.9333 94.4782 53.4543H93.3128ZM92.0079 49.714C91.9846 49.7838 91.9497 49.8791 91.9032 50.0001C91.8567 50.1211 91.8032 50.2606 91.7427 50.4188C91.6822 50.577 91.6148 50.7514 91.5403 50.9422C91.4706 51.1329 91.3984 51.3329 91.324 51.5423H92.6987C92.6243 51.3329 92.5522 51.1329 92.4824 50.9422C92.4126 50.7514 92.3452 50.577 92.28 50.4188C92.2196 50.2606 92.1661 50.1211 92.1195 50.0001C92.073 49.8791 92.0358 49.7838 92.0079 49.714ZM96.859 53.552C96.5194 53.552 96.2263 53.5055 95.9797 53.4125C95.7332 53.3148 95.5285 53.1822 95.3656 53.0147C95.2075 52.8426 95.0888 52.6402 95.0097 52.4076C94.9353 52.1703 94.8981 51.9098 94.8981 51.626V48.6184H95.9867V51.5353C95.9867 51.7307 96.0076 51.8982 96.0495 52.0378C96.096 52.1727 96.1565 52.2843 96.2309 52.3727C96.31 52.4565 96.4031 52.5169 96.5101 52.5541C96.6217 52.5914 96.7427 52.61 96.8729 52.61C97.1381 52.61 97.3521 52.5286 97.5149 52.3657C97.6824 52.2029 97.7662 51.9261 97.7662 51.5353V48.6184H98.8548V51.626C98.8548 51.9098 98.8152 52.1703 98.7361 52.4076C98.6571 52.6449 98.5361 52.8496 98.3733 53.0217C98.2104 53.1892 98.0034 53.3194 97.7522 53.4125C97.501 53.5055 97.2033 53.552 96.859 53.552ZM101.318 48.5626C102.044 48.5626 102.6 48.6928 102.986 48.9534C103.372 49.2092 103.565 49.6093 103.565 50.1536C103.565 50.4932 103.486 50.77 103.328 50.984C103.175 51.1934 102.951 51.3585 102.658 51.4795C102.756 51.6004 102.858 51.74 102.965 51.8982C103.072 52.0517 103.177 52.2145 103.279 52.3867C103.386 52.5541 103.489 52.7309 103.586 52.917C103.684 53.0985 103.775 53.2776 103.858 53.4543H102.637C102.549 53.2962 102.458 53.1357 102.365 52.9728C102.277 52.81 102.184 52.6518 102.086 52.4983C101.993 52.3448 101.9 52.2006 101.807 52.0657C101.714 51.9261 101.621 51.8005 101.528 51.6888H100.99V53.4543H99.9017V48.6882C100.139 48.6417 100.383 48.6091 100.634 48.5905C100.89 48.5719 101.118 48.5626 101.318 48.5626ZM101.381 49.4907C101.302 49.4907 101.23 49.493 101.165 49.4977C101.104 49.5023 101.046 49.507 100.99 49.5116V50.8235H101.297C101.707 50.8235 102 50.7724 102.177 50.67C102.353 50.5677 102.442 50.3932 102.442 50.1466C102.442 49.9094 102.351 49.7419 102.17 49.6442C101.993 49.5419 101.73 49.4907 101.381 49.4907ZM108.012 53.4543C107.961 53.2869 107.903 53.1147 107.838 52.938C107.777 52.7612 107.717 52.5844 107.656 52.4076H105.772C105.712 52.5844 105.649 52.7612 105.584 52.938C105.523 53.1147 105.467 53.2869 105.416 53.4543H104.286C104.467 52.9333 104.639 52.4518 104.802 52.0098C104.965 51.5679 105.123 51.1515 105.277 50.7607C105.435 50.3699 105.588 50.0001 105.737 49.6512C105.891 49.2976 106.049 48.9534 106.212 48.6184H107.252C107.41 48.9534 107.566 49.2976 107.719 49.6512C107.873 50.0001 108.026 50.3699 108.18 50.7607C108.338 51.1515 108.498 51.5679 108.661 52.0098C108.824 52.4518 108.996 52.9333 109.178 53.4543H108.012ZM106.707 49.714C106.684 49.7838 106.649 49.8791 106.603 50.0001C106.556 50.1211 106.503 50.2606 106.442 50.4188C106.382 50.577 106.314 50.7514 106.24 50.9422C106.17 51.1329 106.098 51.3329 106.023 51.5423H107.398C107.324 51.3329 107.252 51.1329 107.182 50.9422C107.112 50.7514 107.045 50.577 106.979 50.4188C106.919 50.2606 106.865 50.1211 106.819 50.0001C106.772 49.8791 106.735 49.7838 106.707 49.714ZM113.048 53.4543C112.737 52.9007 112.399 52.3541 112.037 51.8144C111.674 51.2748 111.288 50.7654 110.878 50.2862V53.4543H109.804V48.6184H110.69C110.843 48.7719 111.013 48.9603 111.199 49.1836C111.385 49.4069 111.574 49.6465 111.764 49.9024C111.96 50.1536 112.153 50.4165 112.344 50.6909C112.534 50.9608 112.713 51.2213 112.881 51.4725V48.6184H113.963V53.4543H113.048ZM118.665 48.6184V49.5465H117.207V53.4543H116.118V49.5465H114.659V48.6184H118.665ZM122.758 50.991C122.758 51.1259 122.734 51.2539 122.688 51.3748C122.641 51.4911 122.574 51.5958 122.486 51.6888C122.397 51.7772 122.29 51.8493 122.165 51.9052C122.044 51.9563 121.906 51.9819 121.753 51.9819C121.599 51.9819 121.46 51.9563 121.334 51.9052C121.213 51.8493 121.108 51.7772 121.02 51.6888C120.932 51.5958 120.864 51.4911 120.818 51.3748C120.771 51.2539 120.748 51.1259 120.748 50.991C120.748 50.8608 120.771 50.7351 120.818 50.6142C120.864 50.4932 120.932 50.3886 121.02 50.3002C121.108 50.2071 121.213 50.135 121.334 50.0838C121.46 50.028 121.599 50.0001 121.753 50.0001C121.906 50.0001 122.044 50.028 122.165 50.0838C122.29 50.135 122.397 50.2071 122.486 50.3002C122.574 50.3886 122.641 50.4932 122.688 50.6142C122.734 50.7351 122.758 50.8608 122.758 50.991ZM127.464 53.552C126.678 53.552 126.078 53.3334 125.664 52.8961C125.255 52.4588 125.05 51.8377 125.05 51.0329C125.05 50.6328 125.113 50.2769 125.238 49.9652C125.364 49.6489 125.536 49.3837 125.755 49.1697C125.973 48.951 126.234 48.7859 126.536 48.6742C126.839 48.5626 127.167 48.5067 127.52 48.5067C127.725 48.5067 127.911 48.523 128.079 48.5556C128.246 48.5835 128.393 48.6184 128.518 48.6603C128.644 48.6975 128.748 48.737 128.832 48.7789C128.916 48.8208 128.976 48.8533 129.014 48.8766L128.7 49.7559C128.551 49.6768 128.376 49.6093 128.176 49.5535C127.981 49.4977 127.758 49.4697 127.506 49.4697C127.339 49.4697 127.174 49.4977 127.011 49.5535C126.853 49.6093 126.711 49.7 126.585 49.8256C126.464 49.9466 126.367 50.1048 126.292 50.3002C126.218 50.4956 126.18 50.7328 126.18 51.0119C126.18 51.2353 126.204 51.4446 126.25 51.64C126.301 51.8307 126.381 51.9959 126.488 52.1354C126.599 52.275 126.743 52.3867 126.92 52.4704C127.097 52.5495 127.311 52.589 127.562 52.589C127.72 52.589 127.862 52.5797 127.988 52.5611C128.113 52.5425 128.225 52.5216 128.323 52.4983C128.421 52.4704 128.507 52.4402 128.581 52.4076C128.655 52.375 128.723 52.3448 128.783 52.3169L129.083 53.1892C128.93 53.2822 128.714 53.366 128.434 53.4404C128.155 53.5148 127.832 53.552 127.464 53.552ZM130.521 51.0329C130.521 51.2701 130.549 51.4841 130.605 51.6749C130.666 51.8656 130.749 52.0308 130.856 52.1703C130.968 52.3053 131.103 52.4099 131.261 52.4844C131.419 52.5588 131.601 52.596 131.805 52.596C132.005 52.596 132.184 52.5588 132.343 52.4844C132.505 52.4099 132.64 52.3053 132.747 52.1703C132.859 52.0308 132.943 51.8656 132.999 51.6749C133.059 51.4841 133.089 51.2701 133.089 51.0329C133.089 50.7956 133.059 50.5816 132.999 50.3909C132.943 50.1955 132.859 50.0303 132.747 49.8954C132.64 49.7559 132.505 49.6489 132.343 49.5744C132.184 49.5 132.005 49.4628 131.805 49.4628C131.601 49.4628 131.419 49.5023 131.261 49.5814C131.103 49.6558 130.968 49.7628 130.856 49.9024C130.749 50.0373 130.666 50.2025 130.605 50.3979C130.549 50.5886 130.521 50.8003 130.521 51.0329ZM134.213 51.0329C134.213 51.4469 134.15 51.8121 134.024 52.1285C133.903 52.4402 133.736 52.703 133.522 52.917C133.308 53.1264 133.052 53.2845 132.754 53.3915C132.461 53.4985 132.145 53.552 131.805 53.552C131.475 53.552 131.163 53.4985 130.87 53.3915C130.577 53.2845 130.321 53.1264 130.103 52.917C129.884 52.703 129.712 52.4402 129.586 52.1285C129.461 51.8121 129.398 51.4469 129.398 51.0329C129.398 50.6188 129.463 50.256 129.593 49.9443C129.723 49.6279 129.898 49.3627 130.117 49.1487C130.34 48.9347 130.596 48.7742 130.884 48.6672C131.177 48.5602 131.484 48.5067 131.805 48.5067C132.136 48.5067 132.447 48.5602 132.74 48.6672C133.033 48.7742 133.289 48.9347 133.508 49.1487C133.727 49.3627 133.899 49.6279 134.024 49.9443C134.15 50.256 134.213 50.6188 134.213 51.0329ZM137.325 53.552C136.539 53.552 135.939 53.3334 135.525 52.8961C135.116 52.4588 134.911 51.8377 134.911 51.0329C134.911 50.6328 134.974 50.2769 135.099 49.9652C135.225 49.6489 135.397 49.3837 135.616 49.1697C135.834 48.951 136.095 48.7859 136.397 48.6742C136.7 48.5626 137.028 48.5067 137.381 48.5067C137.586 48.5067 137.772 48.523 137.939 48.5556C138.107 48.5835 138.254 48.6184 138.379 48.6603C138.505 48.6975 138.609 48.737 138.693 48.7789C138.777 48.8208 138.837 48.8533 138.875 48.8766L138.561 49.7559C138.412 49.6768 138.237 49.6093 138.037 49.5535C137.842 49.4977 137.618 49.4697 137.367 49.4697C137.2 49.4697 137.035 49.4977 136.872 49.5535C136.714 49.6093 136.572 49.7 136.446 49.8256C136.325 49.9466 136.227 50.1048 136.153 50.3002C136.079 50.4956 136.041 50.7328 136.041 51.0119C136.041 51.2353 136.065 51.4446 136.111 51.64C136.162 51.8307 136.241 51.9959 136.348 52.1354C136.46 52.275 136.604 52.3867 136.781 52.4704C136.958 52.5495 137.172 52.589 137.423 52.589C137.581 52.589 137.723 52.5797 137.849 52.5611C137.974 52.5425 138.086 52.5216 138.184 52.4983C138.281 52.4704 138.367 52.4402 138.442 52.4076C138.516 52.375 138.584 52.3448 138.644 52.3169L138.944 53.1892C138.791 53.2822 138.575 53.366 138.295 53.4404C138.016 53.5148 137.693 53.552 137.325 53.552ZM142.499 53.4543C142.402 53.2962 142.285 53.1264 142.15 52.9449C142.02 52.7588 141.876 52.5751 141.718 52.3936C141.564 52.2076 141.404 52.0308 141.236 51.8633C141.069 51.6912 140.901 51.54 140.734 51.4097V53.4543H139.645V48.6184H140.734V50.4467C141.018 50.149 141.301 49.8396 141.585 49.5186C141.874 49.1929 142.141 48.8929 142.388 48.6184H143.679C143.348 49.0092 143.016 49.386 142.681 49.7489C142.35 50.1117 142.002 50.4769 141.634 50.8445C142.02 51.1655 142.392 51.5469 142.751 51.9889C143.113 52.4309 143.46 52.9193 143.79 53.4543H142.499ZM148.166 48.6184V49.5465H146.707V53.4543H145.619V49.5465H144.16V48.6184H148.166ZM151.531 53.4543C151.48 53.2869 151.422 53.1147 151.357 52.938C151.296 52.7612 151.236 52.5844 151.175 52.4076H149.291C149.231 52.5844 149.168 52.7612 149.103 52.938C149.042 53.1147 148.986 53.2869 148.935 53.4543H147.805C147.986 52.9333 148.158 52.4518 148.321 52.0098C148.484 51.5679 148.642 51.1515 148.796 50.7607C148.954 50.3699 149.107 50.0001 149.256 49.6512C149.41 49.2976 149.568 48.9534 149.731 48.6184H150.77C150.929 48.9534 151.084 49.2976 151.238 49.6512C151.391 50.0001 151.545 50.3699 151.699 50.7607C151.857 51.1515 152.017 51.5679 152.18 52.0098C152.343 52.4518 152.515 52.9333 152.696 53.4543H151.531ZM150.226 49.714C150.203 49.7838 150.168 49.8791 150.121 50.0001C150.075 50.1211 150.021 50.2606 149.961 50.4188C149.9 50.577 149.833 50.7514 149.759 50.9422C149.689 51.1329 149.617 51.3329 149.542 51.5423H150.917C150.843 51.3329 150.77 51.1329 150.701 50.9422C150.631 50.7514 150.563 50.577 150.498 50.4188C150.438 50.2606 150.384 50.1211 150.338 50.0001C150.291 49.8791 150.254 49.7838 150.226 49.714ZM153.322 48.6184H154.411V53.4543H153.322V48.6184ZM158.761 52.5193V53.4543H155.53V48.6184H156.619V52.5193H158.761ZM162.856 50.991C162.856 51.1259 162.832 51.2539 162.786 51.3748C162.739 51.4911 162.672 51.5958 162.583 51.6888C162.495 51.7772 162.388 51.8493 162.262 51.9052C162.141 51.9563 162.004 51.9819 161.851 51.9819C161.697 51.9819 161.558 51.9563 161.432 51.9052C161.311 51.8493 161.206 51.7772 161.118 51.6888C161.03 51.5958 160.962 51.4911 160.916 51.3748C160.869 51.2539 160.846 51.1259 160.846 50.991C160.846 50.8608 160.869 50.7351 160.916 50.6142C160.962 50.4932 161.03 50.3886 161.118 50.3002C161.206 50.2071 161.311 50.135 161.432 50.0838C161.558 50.028 161.697 50.0001 161.851 50.0001C162.004 50.0001 162.141 50.028 162.262 50.0838C162.388 50.135 162.495 50.2071 162.583 50.3002C162.672 50.3886 162.739 50.4932 162.786 50.6142C162.832 50.7351 162.856 50.8608 162.856 50.991ZM166.969 53.5172C166.704 53.5172 166.439 53.5078 166.174 53.4892C165.913 53.4753 165.641 53.4381 165.357 53.3776V48.6882C165.581 48.6463 165.825 48.6161 166.09 48.5975C166.355 48.5742 166.602 48.5626 166.83 48.5626C167.137 48.5626 167.418 48.5858 167.674 48.6324C167.935 48.6742 168.158 48.7487 168.344 48.8557C168.53 48.9627 168.674 49.1045 168.777 49.2813C168.884 49.4535 168.937 49.6675 168.937 49.9233C168.937 50.3095 168.751 50.6142 168.379 50.8375C168.686 50.9538 168.895 51.112 169.007 51.312C169.119 51.5121 169.174 51.7377 169.174 51.9889C169.174 52.496 168.988 52.8775 168.616 53.1333C168.249 53.3892 167.7 53.5172 166.969 53.5172ZM166.418 51.3469V52.596C166.497 52.6053 166.583 52.6123 166.676 52.617C166.769 52.6216 166.872 52.6239 166.983 52.6239C167.309 52.6239 167.572 52.5774 167.772 52.4844C167.972 52.3913 168.072 52.2192 168.072 51.968C168.072 51.7447 167.988 51.5865 167.821 51.4934C167.653 51.3958 167.413 51.3469 167.102 51.3469H166.418ZM166.418 50.5165H166.948C167.283 50.5165 167.523 50.4746 167.667 50.3909C167.811 50.3025 167.883 50.1629 167.883 49.9722C167.883 49.7768 167.809 49.6396 167.66 49.5605C167.511 49.4814 167.293 49.4418 167.004 49.4418C166.911 49.4418 166.811 49.4442 166.704 49.4488C166.597 49.4488 166.502 49.4535 166.418 49.4628V50.5165ZM173.216 53.4543C173.164 53.2869 173.106 53.1147 173.041 52.938C172.981 52.7612 172.92 52.5844 172.86 52.4076H170.976C170.915 52.5844 170.852 52.7612 170.787 52.938C170.727 53.1147 170.671 53.2869 170.62 53.4543H169.489C169.671 52.9333 169.843 52.4518 170.006 52.0098C170.168 51.5679 170.327 51.1515 170.48 50.7607C170.638 50.3699 170.792 50.0001 170.941 49.6512C171.094 49.2976 171.252 48.9534 171.415 48.6184H172.455C172.613 48.9534 172.769 49.2976 172.922 49.6512C173.076 50.0001 173.229 50.3699 173.383 50.7607C173.541 51.1515 173.702 51.5679 173.865 52.0098C174.027 52.4518 174.199 52.9333 174.381 53.4543H173.216ZM171.911 49.714C171.887 49.7838 171.852 49.8791 171.806 50.0001C171.759 50.1211 171.706 50.2606 171.645 50.4188C171.585 50.577 171.517 50.7514 171.443 50.9422C171.373 51.1329 171.301 51.3329 171.227 51.5423H172.601C172.527 51.3329 172.455 51.1329 172.385 50.9422C172.315 50.7514 172.248 50.577 172.183 50.4188C172.122 50.2606 172.069 50.1211 172.022 50.0001C171.976 49.8791 171.939 49.7838 171.911 49.714ZM176.423 48.5626C177.149 48.5626 177.705 48.6928 178.091 48.9534C178.477 49.2092 178.67 49.6093 178.67 50.1536C178.67 50.4932 178.591 50.77 178.433 50.984C178.28 51.1934 178.056 51.3585 177.763 51.4795C177.861 51.6004 177.963 51.74 178.07 51.8982C178.177 52.0517 178.282 52.2145 178.384 52.3867C178.491 52.5541 178.594 52.7309 178.691 52.917C178.789 53.0985 178.88 53.2776 178.964 53.4543H177.742C177.654 53.2962 177.563 53.1357 177.47 52.9728C177.382 52.81 177.289 52.6518 177.191 52.4983C177.098 52.3448 177.005 52.2006 176.912 52.0657C176.819 51.9261 176.726 51.8005 176.633 51.6888H176.095V53.4543H175.007V48.6882C175.244 48.6417 175.488 48.6091 175.74 48.5905C175.995 48.5719 176.223 48.5626 176.423 48.5626ZM176.486 49.4907C176.407 49.4907 176.335 49.493 176.27 49.4977C176.209 49.5023 176.151 49.507 176.095 49.5116V50.8235H176.403C176.812 50.8235 177.105 50.7724 177.282 50.67C177.459 50.5677 177.547 50.3932 177.547 50.1466C177.547 49.9094 177.456 49.7419 177.275 49.6442C177.098 49.5419 176.835 49.4907 176.486 49.4907Z" fill="#045265"/>
<path d="M213.781 22.048C211.862 21.7165 209.896 21.6235 207.943 21.4723C206.105 21.3269 204.256 21.292 202.418 21.1176C201.174 21.0013 200.325 20.3092 200.179 18.9892C200.028 17.6401 200.668 16.6515 201.866 16.1746C202.784 15.8083 203.808 15.6105 204.802 15.5233C208.71 15.1802 212.385 16.0002 215.811 18.1053C216.41 16.9131 216.956 15.8315 217.741 14.273C214.781 13.3949 212.071 12.2493 209.263 11.8423C205.529 11.3014 201.714 11.3654 198.423 13.7555C196.341 15.2616 195.387 18.082 196.202 20.7047C196.946 23.1064 198.557 24.6532 201.168 24.8509C203.401 25.0196 205.64 25.0777 207.873 25.2173C209.437 25.3162 211.019 25.3685 212.56 25.6244C213.729 25.8163 214.584 26.5199 214.694 27.8749C214.81 29.2938 214.409 30.4568 213.124 31.143C212.542 31.4571 211.874 31.7071 211.222 31.7711C207.344 32.1433 203.465 32.2828 199.795 30.6138C198.586 30.0672 197.434 29.3985 196.172 28.7472C195.579 29.8404 195.021 30.8697 194.387 32.0444C198.382 35.1032 202.941 35.8766 207.646 35.9697C210.455 36.0278 213.275 35.7603 215.752 34.1786C218.631 32.3468 219.125 29.5031 218.66 26.4792C218.253 23.8216 216.282 22.4783 213.775 22.0422L213.781 22.048Z" fill="#045265"/>
<path d="M150.93 12.7959C145.888 12.2319 140.765 12.3656 135.56 12.1912V35.0858C136.38 35.0858 137.049 35.0858 137.718 35.0858C141.817 35.0567 145.946 35.2777 150.011 34.888C151.947 34.7019 154 33.6726 155.594 32.4805C158.85 30.0439 159.53 26.421 159.309 22.5248C159.025 17.5412 155.797 13.3368 150.924 12.7959H150.93ZM151.005 30.672C150.011 31.0035 148.935 31.2012 147.888 31.2302C145.301 31.3058 142.713 31.2535 140.125 31.2477C139.962 31.2477 139.794 31.2128 139.433 31.1663V15.9769C143.114 16.1513 146.708 16.1281 150.249 16.5526C153.349 16.9248 155.326 19.5591 155.535 22.8563C155.785 26.7176 154.151 29.6136 151.005 30.6662V30.672Z" fill="#045265"/>
<path d="M126.122 31.3407H109.746V25.4092H122.546V21.5769H109.74V16.2793H125.674V12.6389H105.96V35.1206H126.122V31.3407Z" fill="#045265"/>
<path d="M188.985 25.4559C189.002 24.4441 188.961 23.4089 188.88 22.3738C188.665 19.7279 186.432 8.14395 185.745 4.93975C185.571 4.13144 185.408 3.85231 184.803 3.83486C184.722 3.83486 184.629 3.83486 184.524 3.83486C184.303 3.84649 183.71 3.85231 183.71 3.85231L183.693 22.0307V28.3635H181.128V3.86394H178.959V28.5264H176.447V3.86394H174.272V28.3635H171.707V22.0307L171.69 3.85231C171.69 3.85231 171.097 3.85231 170.876 3.83486C170.771 3.83486 170.684 3.82904 170.597 3.83486C169.998 3.85231 169.829 4.13144 169.655 4.93975C168.969 8.14395 166.73 19.7279 166.52 22.3738C166.439 23.4089 166.398 24.4382 166.416 25.4559C166.381 27.9855 166.735 30.4163 167.916 32.4749C168.748 33.9229 170.009 34.9522 171.376 35.6209C171.388 35.6209 171.393 35.6326 171.405 35.6384C171.417 35.6384 171.428 35.65 171.44 35.6558C171.545 35.7082 171.649 35.7721 171.754 35.8187C171.824 35.8477 171.894 35.8652 171.963 35.8943C173.784 36.6909 175.749 36.9061 177.703 36.8654C179.657 36.9061 181.628 36.6909 183.443 35.8943C183.512 35.8652 183.582 35.8477 183.652 35.8187C183.762 35.7721 183.861 35.7082 183.966 35.6558C183.978 35.65 183.989 35.6442 184.001 35.6384C184.013 35.6384 184.018 35.6268 184.03 35.6209C185.397 34.9522 186.658 33.9229 187.49 32.4749C188.671 30.4163 189.025 27.9797 188.99 25.4559H188.985Z" fill="#4C9AA9"/>
<path d="M79.292 24.2811L62.8291 0.427002V35.1149V35.1207H66.2485V35.1149H66.452V11.1154L79.2513 30.1022L79.292 30.0498L79.3269 30.1022L92.1263 11.1154V35.1149H92.3298V35.1207H95.7492V35.1149V0.427002L79.292 24.2811Z" fill="#045265"/>
<path d="M30.5775 8.99287L18.7493 31.3466H3.78674V2.45654H0.00683594V35.1207H19.1332V35.1033H21.0638L23.8551 29.794H37.4628L40.2541 35.1033C40.2541 35.1033 44.633 35.1265 44.662 35.1207C44.6213 34.8939 30.5775 8.99868 30.5775 8.99868V8.99287ZM25.8497 25.9966L30.6241 16.9132V16.9074C30.6241 16.9074 32.8048 20.9955 34.4737 24.1241L35.4623 26.0024H25.8439L25.8497 25.9966Z" fill="#045265"/>
<path d="M251.992 35.1208C251.952 34.894 237.908 8.99878 237.908 8.99878L224.091 35.1034H228.394L231.185 29.7941H244.793L247.584 35.1034C247.584 35.1034 251.963 35.1266 251.992 35.1208ZM233.186 25.9967L237.96 16.9133V16.9075C237.96 16.9075 240.141 20.9956 241.81 24.1242L242.798 26.0025H233.18L233.186 25.9967Z" fill="#045265"/>
</g>
<defs>
<clipPath id="clip0_78_459">
<rect width="251.986" height="55.1459" fill="white" transform="translate(0.00683594 0.427002)"/>
</clipPath>
</defs>
</svg>
