<svg width="100" height="100" viewBox="0 0 100 100" fill="none" xmlns="http://www.w3.org/2000/svg">
<path d="M45.2969 14.3413V18.6304C45.2969 20.3433 46.3555 21.894 47.9688 22.4722C51.3047 23.6714 53.6934 26.8628 53.6934 30.6128V84.7319C53.6934 89.5093 49.8203 93.3823 45.043 93.3823H10.1133C5.33789 93.3823 1.46484 89.5093 1.46484 84.7319V30.6128C1.46484 26.8628 3.85156 23.6714 7.18945 22.4722C8.80273 21.894 9.86133 20.3433 9.86133 18.6304V14.3413" stroke="#037DCD" stroke-width="2.92969" stroke-miterlimit="10" stroke-linecap="round" stroke-linejoin="round"/>
<path d="M1.46484 72.2324H8.53848C9.52402 72.2324 10.4291 72.8277 10.7695 73.7525C12.0273 77.1693 15.3096 79.607 19.1631 79.607H35.9943C39.8479 79.607 43.1301 77.1695 44.3879 73.7525C44.7283 72.8277 45.6336 72.2324 46.6189 72.2324H53.6926" stroke="#037DCD" stroke-width="2.92969" stroke-miterlimit="10" stroke-linecap="round" stroke-linejoin="round"/>
<path d="M53.6928 39.3375H46.9213C45.8338 39.3375 44.8879 38.6016 44.6119 37.5496C43.8289 34.5664 41.6916 32.0557 38.7521 30.8424L29.8098 27.1514C28.3811 26.5615 26.777 26.5615 25.348 27.1514L16.4057 30.8424C13.4662 32.0557 11.3289 34.5664 10.5459 37.5496C10.2699 38.6016 9.32402 39.3375 8.23652 39.3375H1.46484" stroke="#037DCD" stroke-width="2.92969" stroke-miterlimit="10" stroke-linecap="round" stroke-linejoin="round"/>
<path d="M70.3398 57.5234C64.3984 60.7578 60.3652 67.0547 60.3652 74.2969C60.3652 84.8379 68.9102 93.3828 79.4492 93.3828C84.2539 93.3828 88.6445 91.6074 92 88.6758" stroke="#037DCD" stroke-width="2.92969" stroke-miterlimit="10" stroke-linecap="round" stroke-linejoin="round"/>
<path d="M94.1855 62.168C96.9023 65.4648 98.5352 69.6914 98.5352 74.2969C98.5352 77.5918 97.7012 80.6895 96.2324 83.3945" stroke="#037DCD" stroke-width="2.92969" stroke-miterlimit="10" stroke-linecap="round" stroke-linejoin="round"/>
<path d="M12.1584 6.61743H6.91719C5.25098 6.61743 3.90039 7.96821 3.90039 9.63423V11.3249C3.90039 12.9911 5.25117 14.3417 6.91719 14.3417H48.2397C49.9059 14.3417 51.2564 12.9909 51.2564 11.3249V9.63423C51.2564 7.96802 49.9057 6.61743 48.2397 6.61743H18.9943" stroke="#037DCD" stroke-width="2.92969" stroke-miterlimit="10" stroke-linecap="round" stroke-linejoin="round"/>
<path d="M88.7756 54.9122C90.4245 52.313 91.528 49.2183 91.3809 46.4558C91.3475 45.8279 90.5598 45.5632 90.1667 46.0538C87.6424 49.2025 82.0176 52.296 78.9153 52.5697C74.5403 52.9556 68.5083 51.4734 65.7028 48.312C65.287 47.8435 64.4975 48.1509 64.5139 48.7773C64.6096 52.413 66.9266 55.5353 70.279 57.4847C70.8913 57.8407 71.1256 58.5999 70.8192 59.2386C69.6762 61.6214 69.0518 64.4972 69.426 67.6749C69.5202 68.4741 70.5801 68.6831 70.9754 67.9822C73.0278 64.3431 77.6122 60.4267 80.1231 59.7292C83.385 62.2753 92.302 64.206 97.5407 60.7269C98.0551 60.3853 97.8967 59.5898 97.2889 59.48C95.0286 59.072 92.0776 58.3661 89.254 56.8097C88.576 56.4363 88.3608 55.5661 88.7756 54.9122Z" stroke="#037DCD" stroke-width="2.92969" stroke-miterlimit="10" stroke-linecap="round" stroke-linejoin="round"/>
<path d="M79.4488 55.1853C76.6594 50.7437 78.2139 42.971 83.6547 40.6392" stroke="#037DCD" stroke-width="2.92969" stroke-miterlimit="10" stroke-linecap="round" stroke-linejoin="round"/>
</svg>
