<svg width="175" height="222" viewBox="0 0 175 222" fill="none" xmlns="http://www.w3.org/2000/svg">
<path d="M173.167 107.038C173.167 107.038 181.7 86.6861 197.92 86.1573C214.14 85.6285 216.001 87.175 216.001 87.175C216.001 87.175 215.983 94.3002 213.37 95.8434C210.753 97.393 211.016 94.0599 211.255 93.5297C211.494 92.9994 217.075 89.1272 225.241 92.8084C233.406 96.4896 235.726 102.778 235.726 102.778C235.726 102.778 233.614 107.191 230.415 108.178C230.415 108.178 235.668 105.304 240.802 108.003C240.802 108.003 245.251 117.803 245.589 123.705C245.589 123.705 234.952 130.287 223.115 126.227C223.115 126.227 228.363 130 229.144 132.266C229.144 132.266 205.625 130.995 203.271 125.583C200.917 120.171 206.644 122.883 207.524 125.456C208.405 128.028 209.445 134.754 209.445 134.754C209.445 134.754 191.15 132.003 191.603 122.491L189.628 129.272C189.628 129.272 175.673 119.276 173.539 112.049C171.405 104.822 190.041 103.891 198.672 105.484C207.304 107.076 223.167 112.567 227.321 115.585M170.142 103.115C170.142 103.115 169.266 84.3171 153.803 75.5552C153.803 75.5552 149.02 79.7866 150.816 84.3092C150.816 84.3092 150.164 70.34 128.042 66.7553C128.042 66.7553 127.512 77.509 130.196 78.4649C132.879 79.4208 134.903 75.729 132.164 74.3709C129.421 73.0037 117.593 67.7406 107.844 72.2243C107.844 72.2243 111.002 78.5064 115.274 79.6635C115.274 79.6635 107.617 76.9804 93.8743 90.9791C93.8743 90.9791 104.644 103.244 113.263 103.809C113.263 103.809 107.034 110.718 103.855 109.792C103.855 109.792 120.876 116.696 125.545 111.391C130.215 106.086 122.987 105.633 122.524 107.731C122.061 109.828 123.182 118.505 123.182 118.505C123.182 118.505 133.851 124.083 142.948 117.192C142.948 117.192 141.758 123.558 138.506 124.391C138.506 124.391 165.245 119.318 169.625 108.002C174.006 96.6853 124.803 89.3401 117.882 92.1548M135.665 80.6767C135.665 80.6767 146.589 89.9446 143.129 96.5639M154.086 101.504C154.086 101.504 147.577 109.562 135.566 106.96M220.125 102.302C220.125 102.302 206.105 101.101 201.863 107.791M190.005 108.495C190.005 108.495 205.384 117.987 214.891 118.691M197.595 81.9212C197.595 81.9212 213.405 71.668 213.59 57.7764C213.59 57.7764 206.067 57.4519 205.044 59.7199C205.044 59.7199 220.701 39.1736 217.723 25.2164C217.723 25.2164 212.972 25.1197 210.78 28.5593C210.78 28.5593 207.4 5.56509 203.784 1.54448C203.784 1.54448 199.09 5.22454 197.401 11.4505C197.401 11.4505 197.386 -7.30507 190.179 -12.9371C190.179 -12.9371 184.506 -8.50714 183.777 -4.06169C183.777 -4.06169 174.772 -19.5367 168.723 -18.1743C168.723 -18.1743 159.566 -8.49617 160.869 -0.75221C160.869 -0.75221 158.587 -3.1416 155.631 -2.59826C155.631 -2.59826 146.736 11.4565 155.731 26.2504C155.731 26.2504 149.872 22.5865 148.446 24.3266C147.02 26.0667 145.017 37.6093 156.158 50.4727C156.158 50.4727 149.525 47.8207 148.611 48.7769C148.611 48.7769 150.351 68.3104 154.308 72.6461M176.156 95.4332C176.156 95.4332 175.072 22.6852 176.512 13.1106C177.952 3.53595 188.907 8.30549 188.628 16.359C188.127 30.854 173.545 49.8168 173.545 49.8168M197.145 56.3278C197.145 56.3278 187.484 76.6866 177.027 78.6144M158.638 119.406C158.638 119.406 143.666 126.202 140.362 136.727C140.362 136.727 148.749 142.046 152.189 140.268C152.189 140.268 140.735 141.754 132.698 160.108C132.698 160.108 137.988 163.261 143.188 160.233C143.188 160.233 130.498 164.989 130.491 184.673C130.491 184.673 138.672 182.995 140.984 178.41C140.984 178.41 132.912 187.809 138.207 204.255C138.207 204.255 142.263 204.293 145.854 199.524C145.854 199.524 147.141 212.627 154.284 220.705C154.284 220.705 166.504 217.519 172.697 201.655C172.697 201.655 175.74 206.609 179.539 209.344C179.539 209.344 189.808 201.451 191.561 185.875C191.561 185.875 194.814 191.946 197.583 191.657C197.583 191.657 204.548 167.7 196.105 158.782C196.105 158.782 201.796 162.116 203.754 160.954C203.754 160.954 206.071 138.737 194.909 131.661M170.838 114.682C170.838 114.682 176.342 126.619 171.325 155.544C166.308 184.469 165.156 193.405 160.938 195.854C156.72 198.303 150.042 195.031 152.935 189.686C155.827 184.341 165.704 163.487 175.382 162.231M178.416 134.203C178.416 134.203 168.059 136.437 161.288 146.676C154.517 156.914 152.714 162.497 152.714 162.497M213.379 69.9499C213.379 69.9499 224.18 59.8216 238.188 59.5792C238.188 59.5792 240.799 62.2938 237.739 70.154C237.739 70.154 251.171 56.3154 265.689 61.3225C280.212 66.3322 280.877 71.2367 280.877 71.2367C280.877 71.2367 281.9 87.5796 276.05 81.9442C270.199 76.3089 284.686 74.4915 290.469 77.6058C296.252 80.7202 311.423 93.8706 314.952 109.437L306.691 117.128C306.691 117.128 319.366 117.73 322.171 120.017C324.975 122.303 331.268 150.877 327.04 163.453C327.04 163.453 308.317 173.085 291.388 165.961C291.388 165.961 286.715 171.003 288.388 176.869C288.388 176.869 251.014 165.302 262.232 161.157C273.45 157.013 257.875 174.021 258.444 179.49C258.444 179.49 233.732 174.215 228.881 160.782L221.564 167.707C221.564 167.707 210.156 160.696 206.912 147.042M312.38 147.043C288.399 124.732 252.846 118.513 252.846 118.513C252.846 118.513 247.824 137.105 269.604 151.536M296.314 111.428C296.314 111.428 280.873 111.654 272.387 126.223M263.552 83.8743C263.552 83.8743 252.64 84.9431 241.637 98.7164M146.983 60.8957C146.983 60.8957 136.551 31.3946 113.936 32.438L114.363 39.9333C114.363 39.9333 106.382 27.0491 86.6879 23.2752C66.9941 19.5012 62.4514 28.5228 62.4514 28.5228C62.4514 28.5228 63.4331 42.879 68.6386 37.9999C73.8442 33.1207 55.46 31.3669 50.0797 31.7088C44.6933 32.0479 29.308 36.6581 23.4823 43.2487C23.4823 43.2487 36.182 49.8886 35.8862 51.6002C35.5904 53.3117 13.0173 49.5927 1.17417 68.4758C1.17417 68.4758 4.52038 78.9782 14.2033 87.0333C14.2033 87.0333 23.7756 90.0571 26.0525 87.117C26.0525 87.117 22.4033 93.8047 19.591 94.7662C19.591 94.7662 21.997 102.077 36.1691 111.08C36.1691 111.08 57.0612 114.802 52.884 109.037C48.7069 103.272 46.6377 119.343 41.7516 121.899C41.7516 121.899 47.7294 132.896 67.5522 138.142C67.5522 138.142 77.4549 139.378 83.4982 134.415C83.4982 134.415 81.1131 142.872 78.8491 145.08C78.8491 145.08 111.021 152.819 120.177 138.489C129.333 124.16 121.793 142.293 120.814 144.465C120.814 144.465 138.171 143.219 142.948 136.14M94.2975 82.0452C94.2975 82.0452 54.5941 64.4847 17.2401 72.1901M41.5561 48.7291C41.5561 48.7291 66.3475 63.9334 69.068 79.1658M89.2578 88.2675C89.2578 88.2675 82.7924 97.6522 62.455 105.188M85.2091 47.6147C85.2091 47.6147 93.2833 49.5481 103.805 55.998C114.321 62.4453 115.061 67.1836 115.061 67.1836" stroke="white" stroke-miterlimit="10"/>
</svg>
