<svg width="30" height="31" viewBox="0 0 30 31" fill="none" xmlns="http://www.w3.org/2000/svg">
<g clip-path="url(#clip0_58_3986)">
<mask id="mask0_58_3986" style="mask-type:luminance" maskUnits="userSpaceOnUse" x="0" y="0" width="30" height="31">
<path d="M0 0.587648H30V30.5876H0V0.587648Z" fill="white"/>
</mask>
<g mask="url(#mask0_58_3986)">
<path d="M8.41014 1.46655C6.41297 1.46655 4.49719 2.26003 3.08461 3.67237C1.6725 5.08478 0.878906 7.00038 0.878906 8.99779C0.878906 20.4362 10.1513 29.7087 21.5899 29.7087C23.587 29.7087 25.5028 28.9153 26.9153 27.5029C28.3275 26.0905 29.1211 24.1749 29.1211 22.1775L19.707 18.4119L17.8242 23.1189H17.8232C12.1047 23.1189 7.46877 18.4831 7.46877 12.7644V12.7634L12.1758 10.8806L8.41014 1.46655Z" stroke="white" stroke-width="1.5" stroke-miterlimit="10" stroke-linecap="round" stroke-linejoin="round"/>
</g>
</g>
<defs>
<clipPath id="clip0_58_3986">
<rect width="30" height="30" fill="white" transform="translate(0 0.587646)"/>
</clipPath>
</defs>
</svg>
