<svg width="35" height="36" viewBox="0 0 35 36" fill="none" xmlns="http://www.w3.org/2000/svg">
<g clip-path="url(#clip0_58_4051)">
<mask id="mask0_58_4051" style="mask-type:luminance" maskUnits="userSpaceOnUse" x="0" y="0" width="35" height="36">
<path d="M0 0.58765H35V35.5876H0V0.58765Z" fill="white"/>
</mask>
<g mask="url(#mask0_58_4051)">
<path d="M3.12013 26.1153C1.78616 23.7423 1.02539 21.004 1.02539 18.0879C1.02539 9.02693 8.4391 1.61328 17.5 1.61328C26.561 1.61328 33.9746 9.02693 33.9746 18.0879C33.9746 27.1488 26.561 34.5625 17.5 34.5625C14.5839 34.5625 11.8456 33.8017 9.47256 32.4678L1.02539 34.5625L3.12013 26.1153Z" stroke="white" stroke-width="2" stroke-miterlimit="10" stroke-linecap="round" stroke-linejoin="round"/>
<path d="M15.5678 20.02C14.8879 19.3378 12.1586 16.3091 13.1517 15.316C13.4247 15.043 14.5161 14.2975 14.9419 13.8717C16.3921 12.4216 14.7283 10.6262 13.6614 9.55928C13.5743 9.47213 11.9319 7.70456 9.75155 9.88502C5.85336 13.7832 11.4098 20.773 13.104 22.4838C14.8149 24.1781 21.8046 29.7345 25.7029 25.8363C27.8833 23.6559 26.1157 22.0135 26.0285 21.9265C24.9617 20.8596 23.1663 19.1958 21.7162 20.6459C21.2904 21.0718 20.5449 22.1631 20.2719 22.4361C19.2787 23.4293 16.25 20.7 15.5678 20.02Z" stroke="white" stroke-width="2" stroke-miterlimit="10"/>
</g>
</g>
<defs>
<clipPath id="clip0_58_4051">
<rect width="35" height="35" fill="white" transform="translate(0 0.587646)"/>
</clipPath>
</defs>
</svg>
