<svg width="23" height="34" viewBox="0 0 23 34" fill="none" xmlns="http://www.w3.org/2000/svg">
<path d="M22.9845 22.4559C23.002 21.4441 22.9613 20.4089 22.8799 19.3738C22.6647 16.7279 20.4316 5.14395 19.7454 1.93975C19.571 1.13144 19.4082 0.852306 18.8034 0.83486C18.722 0.83486 18.6289 0.83486 18.5242 0.83486C18.3033 0.84649 17.7101 0.852305 17.7101 0.852305L17.6927 19.0307V25.3635H15.1281V0.863936H12.9591V25.5264H10.4469V0.863936H8.272V25.3635H5.70748V19.0307L5.69003 0.852305C5.69003 0.852305 5.09686 0.852306 4.87588 0.83486C4.77121 0.83486 4.68399 0.829045 4.59676 0.83486C3.99779 0.852306 3.82916 1.13144 3.6547 1.93975C2.9685 5.14395 0.729626 16.7279 0.520278 19.3738C0.438864 20.4089 0.398162 21.4382 0.415608 22.4559C0.380716 24.9855 0.735438 27.4163 1.91593 29.4749C2.74751 30.9229 4.00942 31.9522 5.376 32.6209C5.38763 32.6209 5.39344 32.6326 5.40507 32.6384C5.4167 32.6384 5.42833 32.65 5.43996 32.6558C5.54464 32.7082 5.64932 32.7721 5.75399 32.8187C5.82377 32.8477 5.89357 32.8652 5.96335 32.8943C7.78352 33.6909 9.74906 33.9061 11.703 33.8654C13.6569 33.9061 15.6283 33.6909 17.4426 32.8943C17.5124 32.8652 17.5822 32.8477 17.652 32.8187C17.7624 32.7721 17.8613 32.7082 17.966 32.6558C17.9776 32.65 17.9892 32.6442 18.0009 32.6384C18.0125 32.6384 18.0183 32.6268 18.03 32.6209C19.3965 31.9522 20.6584 30.9229 21.49 29.4749C22.6705 27.4163 23.0253 24.9797 22.9904 22.4559H22.9845Z" fill="#4C9AA9"/>
</svg>
